<svg xmlns="http://www.w3.org/2000/svg" viewBox="0 0 500 500"><g id="freepik--background-complete--inject-1"><rect y="382.4" width="500" height="0.25" style="fill:#ebebeb"></rect><rect x="416.78" y="398.49" width="33.12" height="0.25" style="fill:#ebebeb"></rect><rect x="322.53" y="401.21" width="8.69" height="0.25" style="fill:#ebebeb"></rect><rect x="396.59" y="389.21" width="19.19" height="0.25" style="fill:#ebebeb"></rect><rect x="52.46" y="390.89" width="43.19" height="0.25" style="fill:#ebebeb"></rect><rect x="104.56" y="390.89" width="6.33" height="0.25" style="fill:#ebebeb"></rect><rect x="131.47" y="395.11" width="93.68" height="0.25" style="fill:#ebebeb"></rect><path d="M237,337.8H43.91a5.71,5.71,0,0,1-5.7-5.71V60.66A5.71,5.71,0,0,1,43.91,55H237a5.71,5.71,0,0,1,5.71,5.71V332.09A5.71,5.71,0,0,1,237,337.8ZM43.91,55.2a5.46,5.46,0,0,0-5.45,5.46V332.09a5.46,5.46,0,0,0,5.45,5.46H237a5.47,5.47,0,0,0,5.46-5.46V60.66A5.47,5.47,0,0,0,237,55.2Z" style="fill:#ebebeb"></path><path d="M453.31,337.8H260.21a5.72,5.72,0,0,1-5.71-5.71V60.66A5.72,5.72,0,0,1,260.21,55h193.1A5.71,5.71,0,0,1,459,60.66V332.09A5.71,5.71,0,0,1,453.31,337.8ZM260.21,55.2a5.47,5.47,0,0,0-5.46,5.46V332.09a5.47,5.47,0,0,0,5.46,5.46h193.1a5.47,5.47,0,0,0,5.46-5.46V60.66a5.47,5.47,0,0,0-5.46-5.46Z" style="fill:#ebebeb"></path><path d="M303.9,168.74V176h30.81v-7.25h-14.5V110l13.41,1.51.29.36.27-.3,24.4,2.74.22.28.22-.23,49.1,5.51V374.47h13.6V100.76H317.49v68Zm92.48-52.94-16.87-1.89,8.17-8.41Zm-6.85-12.32h17.09l-7.94,10.83Zm-12.31,8.88-8-8.88h16.67Zm-54.89-4.86-2.12-.24v-2.64Zm.42-4h4.37l-2.43,2.64Zm15.13,0-3.83,4.2-3.34-4.2Zm12,0-4.42,5.06-4-5.06Zm15.56,0L359,110.42l-5.51-6.94Zm42.64,13.64-7.51-.84L408.12,106Zm-46.78-5.25,6-6.38,7.13,7.85Zm-5.15-.58-8.64-1,4.13-4.72Zm-19.74-2.21,3.2-3.51,3.39,4.25Zm-5.22-.59-4.56-.51,2.23-2.41Z" style="fill:#e0e0e0"></path><path d="M348.31,170.55h-3.63v184h47.13V165.11h-3.62v17.22H370.06v-9.06h-2.72v9.06h-19Zm21.75,16.31h18.13v10H370.06Zm-21.75,0h19v10h-19Z" style="fill:#e0e0e0"></path><polygon points="64.66 382.63 64.66 336.26 68.62 336.26 68.62 314.16 74.42 314.16 74.42 237.34 82.8 237.34 82.8 227.43 100.69 219.09 100.69 209.09 103.17 209.09 103.17 237.34 106.64 237.34 106.64 314.16 110.11 314.16 110.11 273.77 119.52 273.77 119.52 252.95 122.15 252.95 122.15 314.16 129.3 314.16 129.3 290.87 134.01 290.87 134.01 284.92 144.91 284.92 144.91 264.6 150.88 264.6 150.88 250.23 158.22 250.23 158.22 229.29 160.84 229.29 160.84 250.23 168.18 250.23 168.18 264.6 174.16 264.6 174.16 284.92 185.06 284.92 185.06 290.87 189.77 290.87 189.77 314.16 195.35 314.16 195.35 284.92 206.26 284.92 206.26 221.98 209.72 221.98 209.72 215.04 233.02 215.04 233.02 221.98 237.97 221.98 237.97 267.57 257.8 267.57 257.8 272.03 265.24 272.03 265.24 275.5 257.8 275.5 257.8 293.35 278.62 293.35 278.62 233.87 283.08 233.87 283.08 221.23 292.74 221.23 292.74 176.38 295.47 176.38 295.47 221.23 302.41 221.23 302.41 233.87 343.08 233.87 343.08 229.71 345.56 229.71 345.56 257.96 349.03 257.96 349.03 258.46 351.12 258.46 351.12 286.71 354.58 286.71 354.58 294.39 361.92 294.39 361.92 273.57 364.55 273.57 364.55 323.14 367.47 323.14 367.47 302.32 370.1 302.32 370.1 334.78 371.7 334.78 371.7 311.49 376.41 311.49 376.41 305.54 387.31 305.54 387.31 285.22 393.28 285.22 393.28 270.85 400.62 270.85 400.62 249.91 403.24 249.91 403.24 270.85 410.58 270.85 410.58 285.22 416.55 285.22 416.55 305.54 427.46 305.54 427.46 311.49 432.16 311.49 432.16 334.29 433.01 334.29 433.01 334.78 435.34 334.78 435.34 382.63 64.66 382.63" style="fill:#ebebeb"></polygon><rect x="317.58" y="236.65" width="2.81" height="2.81" style="fill:#f5f5f5"></rect><rect x="317.58" y="241.36" width="2.81" height="2.81" style="fill:#f5f5f5"></rect><rect x="317.58" y="260.19" width="2.81" height="2.81" style="fill:#f5f5f5"></rect><rect x="317.58" y="264.9" width="2.81" height="2.81" style="fill:#f5f5f5"></rect><rect x="317.58" y="269.61" width="2.81" height="2.81" style="fill:#f5f5f5"></rect><rect x="317.58" y="283.73" width="2.81" height="2.81" style="fill:#f5f5f5"></rect><rect x="317.58" y="288.44" width="2.81" height="2.81" style="fill:#f5f5f5"></rect><rect x="313.12" y="255.48" width="2.81" height="2.81" style="fill:#f5f5f5"></rect><rect x="313.12" y="260.19" width="2.81" height="2.81" style="fill:#f5f5f5"></rect><rect x="313.12" y="264.9" width="2.81" height="2.81" style="fill:#f5f5f5"></rect><rect x="313.12" y="269.61" width="2.81" height="2.81" style="fill:#f5f5f5"></rect><rect x="313.12" y="274.32" width="2.81" height="2.81" style="fill:#f5f5f5"></rect><rect x="313.12" y="283.73" width="2.81" height="2.81" style="fill:#f5f5f5"></rect><rect x="313.12" y="288.44" width="2.81" height="2.81" style="fill:#f5f5f5"></rect><rect x="308.66" y="236.65" width="2.81" height="2.81" style="fill:#f5f5f5"></rect><rect x="308.66" y="241.36" width="2.81" height="2.81" style="fill:#f5f5f5"></rect><rect x="308.66" y="246.07" width="2.81" height="2.81" style="fill:#f5f5f5"></rect><rect x="308.66" y="250.78" width="2.81" height="2.81" style="fill:#f5f5f5"></rect><rect x="308.66" y="255.48" width="2.81" height="2.81" style="fill:#f5f5f5"></rect><rect x="308.66" y="260.19" width="2.81" height="2.81" style="fill:#f5f5f5"></rect><rect x="308.66" y="264.9" width="2.81" height="2.81" style="fill:#f5f5f5"></rect><rect x="308.66" y="269.61" width="2.81" height="2.81" style="fill:#f5f5f5"></rect><rect x="308.66" y="274.32" width="2.81" height="2.81" style="fill:#f5f5f5"></rect><rect x="308.66" y="279.03" width="2.81" height="2.81" style="fill:#f5f5f5"></rect><rect x="308.66" y="288.44" width="2.81" height="2.81" style="fill:#f5f5f5"></rect><rect x="304.2" y="236.65" width="2.81" height="2.81" style="fill:#f5f5f5"></rect><rect x="304.2" y="241.36" width="2.81" height="2.81" style="fill:#f5f5f5"></rect><rect x="304.2" y="246.07" width="2.81" height="2.81" style="fill:#f5f5f5"></rect><rect x="304.2" y="250.78" width="2.81" height="2.81" style="fill:#f5f5f5"></rect><rect x="304.2" y="255.48" width="2.81" height="2.81" style="fill:#f5f5f5"></rect><rect x="304.2" y="260.19" width="2.81" height="2.81" style="fill:#f5f5f5"></rect><rect x="304.2" y="264.9" width="2.81" height="2.81" style="fill:#f5f5f5"></rect><rect x="304.2" y="307.28" width="2.81" height="2.81" style="fill:#f5f5f5"></rect><rect x="299.74" y="236.65" width="2.81" height="2.81" style="fill:#f5f5f5"></rect><rect x="299.74" y="241.36" width="2.81" height="2.81" style="fill:#f5f5f5"></rect><rect x="299.74" y="246.07" width="2.81" height="2.81" style="fill:#f5f5f5"></rect><rect x="299.74" y="250.78" width="2.81" height="2.81" style="fill:#f5f5f5"></rect><rect x="299.74" y="255.48" width="2.81" height="2.81" style="fill:#f5f5f5"></rect><rect x="299.74" y="260.19" width="2.81" height="2.81" style="fill:#f5f5f5"></rect><rect x="299.74" y="264.9" width="2.81" height="2.81" style="fill:#f5f5f5"></rect><rect x="299.74" y="269.61" width="2.81" height="2.81" style="fill:#f5f5f5"></rect><rect x="299.74" y="297.86" width="2.81" height="2.81" style="fill:#f5f5f5"></rect><rect x="299.74" y="302.57" width="2.81" height="2.81" style="fill:#f5f5f5"></rect><rect x="299.74" y="307.28" width="2.81" height="2.81" style="fill:#f5f5f5"></rect><rect x="299.74" y="311.99" width="2.81" height="2.81" style="fill:#f5f5f5"></rect><rect x="299.74" y="330.82" width="2.81" height="2.81" style="fill:#f5f5f5"></rect><rect x="295.28" y="236.65" width="2.81" height="2.81" style="fill:#f5f5f5"></rect><rect x="295.28" y="241.36" width="2.81" height="2.81" style="fill:#f5f5f5"></rect><rect x="295.28" y="246.07" width="2.81" height="2.81" style="fill:#f5f5f5"></rect><rect x="295.28" y="250.78" width="2.81" height="2.81" style="fill:#f5f5f5"></rect><rect x="295.28" y="255.48" width="2.81" height="2.81" style="fill:#f5f5f5"></rect><rect x="295.28" y="260.19" width="2.81" height="2.81" style="fill:#f5f5f5"></rect><rect x="295.28" y="264.9" width="2.81" height="2.81" style="fill:#f5f5f5"></rect><rect x="295.28" y="269.61" width="2.81" height="2.81" style="fill:#f5f5f5"></rect><rect x="295.28" y="274.32" width="2.81" height="2.81" style="fill:#f5f5f5"></rect><rect x="295.28" y="279.03" width="2.81" height="2.81" style="fill:#f5f5f5"></rect><rect x="295.28" y="293.15" width="2.81" height="2.81" style="fill:#f5f5f5"></rect><rect x="295.28" y="297.86" width="2.81" height="2.81" style="fill:#f5f5f5"></rect><rect x="295.28" y="302.57" width="2.81" height="2.81" style="fill:#f5f5f5"></rect><rect x="295.28" y="307.28" width="2.81" height="2.81" style="fill:#f5f5f5"></rect><rect x="295.28" y="311.99" width="2.81" height="2.81" style="fill:#f5f5f5"></rect><rect x="295.28" y="330.82" width="2.81" height="2.81" style="fill:#f5f5f5"></rect><rect x="290.82" y="236.65" width="2.81" height="2.81" style="fill:#f5f5f5"></rect><rect x="290.82" y="241.36" width="2.81" height="2.81" style="fill:#f5f5f5"></rect><rect x="290.82" y="246.07" width="2.81" height="2.81" style="fill:#f5f5f5"></rect><rect x="290.82" y="250.78" width="2.81" height="2.81" style="fill:#f5f5f5"></rect><rect x="290.82" y="255.48" width="2.81" height="2.81" style="fill:#f5f5f5"></rect><rect x="290.82" y="260.19" width="2.81" height="2.81" style="fill:#f5f5f5"></rect><rect x="290.82" y="264.9" width="2.81" height="2.81" style="fill:#f5f5f5"></rect><rect x="290.82" y="269.61" width="2.81" height="2.81" style="fill:#f5f5f5"></rect><rect x="290.82" y="274.32" width="2.81" height="2.81" style="fill:#f5f5f5"></rect><rect x="290.82" y="279.03" width="2.81" height="2.81" style="fill:#f5f5f5"></rect><rect x="290.82" y="283.73" width="2.81" height="2.81" style="fill:#f5f5f5"></rect><rect x="290.82" y="288.44" width="2.81" height="2.81" style="fill:#f5f5f5"></rect><rect x="290.82" y="293.15" width="2.81" height="2.81" style="fill:#f5f5f5"></rect><rect x="290.82" y="297.86" width="2.81" height="2.81" style="fill:#f5f5f5"></rect><rect x="290.82" y="302.57" width="2.81" height="2.81" style="fill:#f5f5f5"></rect><rect x="290.82" y="307.28" width="2.81" height="2.81" style="fill:#f5f5f5"></rect><rect x="290.82" y="311.99" width="2.81" height="2.81" style="fill:#f5f5f5"></rect><rect x="290.82" y="316.69" width="2.81" height="2.81" style="fill:#f5f5f5"></rect><rect x="286.35" y="236.65" width="2.81" height="2.81" style="fill:#f5f5f5"></rect><rect x="286.35" y="241.36" width="2.81" height="2.81" style="fill:#f5f5f5"></rect><rect x="286.35" y="246.07" width="2.81" height="2.81" style="fill:#f5f5f5"></rect><rect x="286.35" y="250.78" width="2.81" height="2.81" style="fill:#f5f5f5"></rect><rect x="286.35" y="255.48" width="2.81" height="2.81" style="fill:#f5f5f5"></rect><rect x="286.35" y="260.19" width="2.81" height="2.81" style="fill:#f5f5f5"></rect><rect x="286.35" y="264.9" width="2.81" height="2.81" style="fill:#f5f5f5"></rect><rect x="286.35" y="269.61" width="2.81" height="2.81" style="fill:#f5f5f5"></rect><rect x="286.35" y="274.32" width="2.81" height="2.81" style="fill:#f5f5f5"></rect><rect x="286.35" y="279.03" width="2.81" height="2.81" style="fill:#f5f5f5"></rect><rect x="286.35" y="293.15" width="2.81" height="2.81" style="fill:#f5f5f5"></rect><rect x="286.35" y="297.86" width="2.81" height="2.81" style="fill:#f5f5f5"></rect><rect x="286.35" y="302.57" width="2.81" height="2.81" style="fill:#f5f5f5"></rect><rect x="286.35" y="307.28" width="2.81" height="2.81" style="fill:#f5f5f5"></rect><rect x="281.89" y="236.65" width="2.81" height="2.81" style="fill:#f5f5f5"></rect><rect x="281.89" y="241.36" width="2.81" height="2.81" style="fill:#f5f5f5"></rect><rect x="281.89" y="246.07" width="2.81" height="2.81" style="fill:#f5f5f5"></rect><rect x="281.89" y="250.78" width="2.81" height="2.81" style="fill:#f5f5f5"></rect><rect x="281.89" y="255.48" width="2.81" height="2.81" style="fill:#f5f5f5"></rect><rect x="281.89" y="260.19" width="2.81" height="2.81" style="fill:#f5f5f5"></rect><rect x="281.89" y="264.9" width="2.81" height="2.81" style="fill:#f5f5f5"></rect><rect x="281.89" y="269.61" width="2.81" height="2.81" style="fill:#f5f5f5"></rect><rect x="281.89" y="274.32" width="2.81" height="2.81" style="fill:#f5f5f5"></rect><rect x="281.89" y="279.03" width="2.81" height="2.81" style="fill:#f5f5f5"></rect><rect x="281.89" y="293.15" width="2.81" height="2.81" style="fill:#f5f5f5"></rect><rect x="281.89" y="297.86" width="2.81" height="2.81" style="fill:#f5f5f5"></rect><rect x="281.89" y="302.57" width="2.81" height="2.81" style="fill:#f5f5f5"></rect><rect x="231.67" y="224.43" width="2.81" height="2.81" style="fill:#f5f5f5"></rect><rect x="231.67" y="229.13" width="2.81" height="2.81" style="fill:#f5f5f5"></rect><rect x="231.67" y="233.84" width="2.81" height="2.81" style="fill:#f5f5f5"></rect><rect x="231.67" y="238.55" width="2.81" height="2.81" style="fill:#f5f5f5"></rect><rect x="231.67" y="243.26" width="2.81" height="2.81" style="fill:#f5f5f5"></rect><rect x="231.67" y="247.97" width="2.81" height="2.81" style="fill:#f5f5f5"></rect><rect x="231.67" y="252.68" width="2.81" height="2.81" style="fill:#f5f5f5"></rect><rect x="231.67" y="257.38" width="2.81" height="2.81" style="fill:#f5f5f5"></rect><rect x="231.67" y="271.51" width="2.81" height="2.81" style="fill:#f5f5f5"></rect><rect x="231.67" y="276.22" width="2.81" height="2.81" style="fill:#f5f5f5"></rect><rect x="227.21" y="224.43" width="2.81" height="2.81" style="fill:#f5f5f5"></rect><rect x="227.21" y="229.13" width="2.81" height="2.81" style="fill:#f5f5f5"></rect><rect x="227.21" y="233.84" width="2.81" height="2.81" style="fill:#f5f5f5"></rect><rect x="227.21" y="238.55" width="2.81" height="2.81" style="fill:#f5f5f5"></rect><rect x="227.21" y="243.26" width="2.81" height="2.81" style="fill:#f5f5f5"></rect><rect x="227.21" y="247.97" width="2.81" height="2.81" style="fill:#f5f5f5"></rect><rect x="227.21" y="252.68" width="2.81" height="2.81" style="fill:#f5f5f5"></rect><rect x="227.21" y="257.38" width="2.81" height="2.81" style="fill:#f5f5f5"></rect><rect x="227.21" y="276.22" width="2.81" height="2.81" style="fill:#f5f5f5"></rect><rect x="222.75" y="224.43" width="2.81" height="2.81" style="fill:#f5f5f5"></rect><rect x="222.75" y="229.13" width="2.81" height="2.81" style="fill:#f5f5f5"></rect><rect x="222.75" y="233.84" width="2.81" height="2.81" style="fill:#f5f5f5"></rect><rect x="222.75" y="238.55" width="2.81" height="2.81" style="fill:#f5f5f5"></rect><rect x="222.75" y="243.26" width="2.81" height="2.81" style="fill:#f5f5f5"></rect><rect x="222.75" y="247.97" width="2.81" height="2.81" style="fill:#f5f5f5"></rect><rect x="222.75" y="252.68" width="2.81" height="2.81" style="fill:#f5f5f5"></rect><rect x="222.75" y="257.38" width="2.81" height="2.81" style="fill:#f5f5f5"></rect><rect x="218.29" y="224.43" width="2.81" height="2.81" style="fill:#f5f5f5"></rect><rect x="218.29" y="229.13" width="2.81" height="2.81" style="fill:#f5f5f5"></rect><rect x="218.29" y="233.84" width="2.81" height="2.81" style="fill:#f5f5f5"></rect><rect x="218.29" y="238.55" width="2.81" height="2.81" style="fill:#f5f5f5"></rect><rect x="218.29" y="243.26" width="2.81" height="2.81" style="fill:#f5f5f5"></rect><rect x="218.29" y="247.97" width="2.81" height="2.81" style="fill:#f5f5f5"></rect><rect x="218.29" y="257.38" width="2.81" height="2.81" style="fill:#f5f5f5"></rect><rect x="218.29" y="262.09" width="2.81" height="2.81" style="fill:#f5f5f5"></rect><rect x="218.29" y="276.22" width="2.81" height="2.81" style="fill:#f5f5f5"></rect><rect x="218.29" y="280.93" width="2.81" height="2.81" style="fill:#f5f5f5"></rect><rect x="218.29" y="285.63" width="2.81" height="2.81" style="fill:#f5f5f5"></rect><rect x="218.29" y="290.34" width="2.81" height="2.81" style="fill:#f5f5f5"></rect><rect x="218.29" y="295.05" width="2.81" height="2.81" style="fill:#f5f5f5"></rect><rect x="218.29" y="299.76" width="2.81" height="2.81" style="fill:#f5f5f5"></rect><rect x="218.29" y="304.47" width="2.81" height="2.81" style="fill:#f5f5f5"></rect><rect x="213.83" y="224.43" width="2.81" height="2.81" style="fill:#f5f5f5"></rect><rect x="213.83" y="229.13" width="2.81" height="2.81" style="fill:#f5f5f5"></rect><rect x="213.83" y="233.84" width="2.81" height="2.81" style="fill:#f5f5f5"></rect><rect x="213.83" y="238.55" width="2.81" height="2.81" style="fill:#f5f5f5"></rect><rect x="213.83" y="243.26" width="2.81" height="2.81" style="fill:#f5f5f5"></rect><rect x="213.83" y="247.97" width="2.81" height="2.81" style="fill:#f5f5f5"></rect><rect x="213.83" y="262.09" width="2.81" height="2.81" style="fill:#f5f5f5"></rect><rect x="213.83" y="266.8" width="2.81" height="2.81" style="fill:#f5f5f5"></rect><rect x="213.83" y="271.51" width="2.81" height="2.81" style="fill:#f5f5f5"></rect><rect x="213.83" y="276.22" width="2.81" height="2.81" style="fill:#f5f5f5"></rect><rect x="213.83" y="280.93" width="2.81" height="2.81" style="fill:#f5f5f5"></rect><rect x="213.83" y="285.63" width="2.81" height="2.81" style="fill:#f5f5f5"></rect><rect x="213.83" y="290.34" width="2.81" height="2.81" style="fill:#f5f5f5"></rect><rect x="213.83" y="295.05" width="2.81" height="2.81" style="fill:#f5f5f5"></rect><rect x="213.83" y="299.76" width="2.81" height="2.81" style="fill:#f5f5f5"></rect><rect x="213.83" y="304.47" width="2.81" height="2.81" style="fill:#f5f5f5"></rect><rect x="213.83" y="309.18" width="2.81" height="2.81" style="fill:#f5f5f5"></rect><rect x="213.83" y="318.59" width="2.81" height="2.81" style="fill:#f5f5f5"></rect><rect x="209.37" y="224.43" width="2.81" height="2.81" style="fill:#f5f5f5"></rect><rect x="209.37" y="229.13" width="2.81" height="2.81" style="fill:#f5f5f5"></rect><rect x="209.37" y="233.84" width="2.81" height="2.81" style="fill:#f5f5f5"></rect><rect x="209.37" y="238.55" width="2.81" height="2.81" style="fill:#f5f5f5"></rect><rect x="209.37" y="243.26" width="2.81" height="2.81" style="fill:#f5f5f5"></rect><rect x="209.37" y="247.97" width="2.81" height="2.81" style="fill:#f5f5f5"></rect><rect x="209.37" y="262.09" width="2.81" height="2.81" style="fill:#f5f5f5"></rect><rect x="209.37" y="266.8" width="2.81" height="2.81" style="fill:#f5f5f5"></rect><rect x="209.37" y="271.51" width="2.81" height="2.81" style="fill:#f5f5f5"></rect><rect x="209.37" y="276.22" width="2.81" height="2.81" style="fill:#f5f5f5"></rect><rect x="209.37" y="290.34" width="2.81" height="2.81" style="fill:#f5f5f5"></rect><rect x="209.37" y="295.05" width="2.81" height="2.81" style="fill:#f5f5f5"></rect><rect x="209.37" y="299.76" width="2.81" height="2.81" style="fill:#f5f5f5"></rect><rect x="209.37" y="304.47" width="2.81" height="2.81" style="fill:#f5f5f5"></rect><rect x="209.37" y="309.18" width="2.81" height="2.81" style="fill:#f5f5f5"></rect><rect x="209.37" y="318.59" width="2.81" height="2.81" style="fill:#f5f5f5"></rect><rect x="209.37" y="323.3" width="2.81" height="2.81" style="fill:#f5f5f5"></rect><rect x="168.89" y="268.21" width="2.81" height="2.81" style="fill:#f5f5f5"></rect><rect x="168.89" y="272.91" width="2.81" height="2.81" style="fill:#f5f5f5"></rect><rect x="168.89" y="277.62" width="2.81" height="2.81" style="fill:#f5f5f5"></rect><rect x="168.89" y="282.33" width="2.81" height="2.81" style="fill:#f5f5f5"></rect><rect x="168.89" y="287.04" width="2.81" height="2.81" style="fill:#f5f5f5"></rect><rect x="168.89" y="291.75" width="2.81" height="2.81" style="fill:#f5f5f5"></rect><rect x="168.89" y="296.46" width="2.81" height="2.81" style="fill:#f5f5f5"></rect><rect x="168.89" y="310.58" width="2.81" height="2.81" style="fill:#f5f5f5"></rect><rect x="168.89" y="315.29" width="2.81" height="2.81" style="fill:#f5f5f5"></rect><rect x="168.89" y="320" width="2.81" height="2.81" style="fill:#f5f5f5"></rect><rect x="164.43" y="268.21" width="2.81" height="2.81" style="fill:#f5f5f5"></rect><rect x="164.43" y="272.91" width="2.81" height="2.81" style="fill:#f5f5f5"></rect><rect x="164.43" y="277.62" width="2.81" height="2.81" style="fill:#f5f5f5"></rect><rect x="164.43" y="282.33" width="2.81" height="2.81" style="fill:#f5f5f5"></rect><rect x="164.43" y="287.04" width="2.81" height="2.81" style="fill:#f5f5f5"></rect><rect x="164.43" y="291.75" width="2.81" height="2.81" style="fill:#f5f5f5"></rect><rect x="164.43" y="296.46" width="2.81" height="2.81" style="fill:#f5f5f5"></rect><rect x="159.97" y="268.21" width="2.81" height="2.81" style="fill:#f5f5f5"></rect><rect x="159.97" y="272.91" width="2.81" height="2.81" style="fill:#f5f5f5"></rect><rect x="159.97" y="277.62" width="2.81" height="2.81" style="fill:#f5f5f5"></rect><rect x="159.97" y="282.33" width="2.81" height="2.81" style="fill:#f5f5f5"></rect><rect x="159.97" y="287.04" width="2.81" height="2.81" style="fill:#f5f5f5"></rect><rect x="159.97" y="291.75" width="2.81" height="2.81" style="fill:#f5f5f5"></rect><rect x="159.97" y="296.46" width="2.81" height="2.81" style="fill:#f5f5f5"></rect><rect x="155.51" y="268.21" width="2.81" height="2.81" style="fill:#f5f5f5"></rect><rect x="155.51" y="272.91" width="2.81" height="2.81" style="fill:#f5f5f5"></rect><rect x="155.51" y="277.62" width="2.81" height="2.81" style="fill:#f5f5f5"></rect><rect x="155.51" y="282.33" width="2.81" height="2.81" style="fill:#f5f5f5"></rect><rect x="155.51" y="287.04" width="2.81" height="2.81" style="fill:#f5f5f5"></rect><rect x="155.51" y="291.75" width="2.81" height="2.81" style="fill:#f5f5f5"></rect><rect x="155.51" y="296.46" width="2.81" height="2.81" style="fill:#f5f5f5"></rect><rect x="155.51" y="301.16" width="2.81" height="2.81" style="fill:#f5f5f5"></rect><rect x="155.51" y="305.87" width="2.81" height="2.81" style="fill:#f5f5f5"></rect><rect x="155.51" y="310.58" width="2.81" height="2.81" style="fill:#f5f5f5"></rect><rect x="155.51" y="315.29" width="2.81" height="2.81" style="fill:#f5f5f5"></rect><rect x="151.05" y="268.21" width="2.81" height="2.81" style="fill:#f5f5f5"></rect><rect x="151.05" y="272.91" width="2.81" height="2.81" style="fill:#f5f5f5"></rect><rect x="151.05" y="277.62" width="2.81" height="2.81" style="fill:#f5f5f5"></rect><rect x="151.05" y="282.33" width="2.81" height="2.81" style="fill:#f5f5f5"></rect><rect x="151.05" y="287.04" width="2.81" height="2.81" style="fill:#f5f5f5"></rect><rect x="151.05" y="291.75" width="2.81" height="2.81" style="fill:#f5f5f5"></rect><rect x="151.05" y="296.46" width="2.81" height="2.81" style="fill:#f5f5f5"></rect><rect x="151.05" y="301.16" width="2.81" height="2.81" style="fill:#f5f5f5"></rect><rect x="151.05" y="305.87" width="2.81" height="2.81" style="fill:#f5f5f5"></rect><rect x="151.05" y="310.58" width="2.81" height="2.81" style="fill:#f5f5f5"></rect><rect x="151.05" y="315.29" width="2.81" height="2.81" style="fill:#f5f5f5"></rect><rect x="151.05" y="320" width="2.81" height="2.81" style="fill:#f5f5f5"></rect><rect x="151.05" y="334.12" width="2.81" height="2.81" style="fill:#f5f5f5"></rect><rect x="151.05" y="338.83" width="2.81" height="2.81" style="fill:#f5f5f5"></rect><rect x="146.59" y="268.21" width="2.81" height="2.81" style="fill:#f5f5f5"></rect><rect x="146.59" y="272.91" width="2.81" height="2.81" style="fill:#f5f5f5"></rect><rect x="146.59" y="277.62" width="2.81" height="2.81" style="fill:#f5f5f5"></rect><rect x="146.59" y="291.75" width="2.81" height="2.81" style="fill:#f5f5f5"></rect><rect x="146.59" y="296.46" width="2.81" height="2.81" style="fill:#f5f5f5"></rect><rect x="146.59" y="301.16" width="2.81" height="2.81" style="fill:#f5f5f5"></rect><rect x="146.59" y="305.87" width="2.81" height="2.81" style="fill:#f5f5f5"></rect><rect x="146.59" y="310.58" width="2.81" height="2.81" style="fill:#f5f5f5"></rect><rect x="146.59" y="315.29" width="2.81" height="2.81" style="fill:#f5f5f5"></rect><rect x="146.59" y="320" width="2.81" height="2.81" style="fill:#f5f5f5"></rect><rect x="146.59" y="334.12" width="2.81" height="2.81" style="fill:#f5f5f5"></rect><rect x="146.59" y="338.83" width="2.81" height="2.81" style="fill:#f5f5f5"></rect><rect x="146.59" y="343.54" width="2.81" height="2.81" style="fill:#f5f5f5"></rect><rect x="99.84" y="239.95" width="2.81" height="2.81" style="fill:#f5f5f5"></rect><rect x="99.84" y="244.66" width="2.81" height="2.81" style="fill:#f5f5f5"></rect><rect x="99.84" y="249.37" width="2.81" height="2.81" style="fill:#f5f5f5"></rect><rect x="99.84" y="254.08" width="2.81" height="2.81" style="fill:#f5f5f5"></rect><rect x="99.84" y="258.79" width="2.81" height="2.81" style="fill:#f5f5f5"></rect><rect x="99.84" y="263.5" width="2.81" height="2.81" style="fill:#f5f5f5"></rect><rect x="99.84" y="268.21" width="2.81" height="2.81" style="fill:#f5f5f5"></rect><rect x="99.84" y="272.91" width="2.81" height="2.81" style="fill:#f5f5f5"></rect><rect x="99.84" y="277.62" width="2.81" height="2.81" style="fill:#f5f5f5"></rect><rect x="99.84" y="282.33" width="2.81" height="2.81" style="fill:#f5f5f5"></rect><rect x="99.84" y="287.04" width="2.81" height="2.81" style="fill:#f5f5f5"></rect><rect x="99.84" y="291.75" width="2.81" height="2.81" style="fill:#f5f5f5"></rect><rect x="99.84" y="296.46" width="2.81" height="2.81" style="fill:#f5f5f5"></rect><rect x="99.84" y="301.16" width="2.81" height="2.81" style="fill:#f5f5f5"></rect><rect x="99.84" y="305.87" width="2.81" height="2.81" style="fill:#f5f5f5"></rect><rect x="99.84" y="310.58" width="2.81" height="2.81" style="fill:#f5f5f5"></rect><rect x="99.84" y="315.29" width="2.81" height="2.81" style="fill:#f5f5f5"></rect><rect x="99.84" y="320" width="2.81" height="2.81" style="fill:#f5f5f5"></rect><rect x="99.84" y="324.71" width="2.81" height="2.81" style="fill:#f5f5f5"></rect><rect x="99.84" y="329.41" width="2.81" height="2.81" style="fill:#f5f5f5"></rect><rect x="99.84" y="334.12" width="2.81" height="2.81" style="fill:#f5f5f5"></rect><rect x="99.84" y="338.83" width="2.81" height="2.81" style="fill:#f5f5f5"></rect><rect x="99.84" y="343.54" width="2.81" height="2.81" style="fill:#f5f5f5"></rect><rect x="95.38" y="239.95" width="2.81" height="2.81" style="fill:#f5f5f5"></rect><rect x="95.38" y="244.66" width="2.81" height="2.81" style="fill:#f5f5f5"></rect><rect x="95.38" y="249.37" width="2.81" height="2.81" style="fill:#f5f5f5"></rect><rect x="95.38" y="254.08" width="2.81" height="2.81" style="fill:#f5f5f5"></rect><rect x="95.38" y="258.79" width="2.81" height="2.81" style="fill:#f5f5f5"></rect><rect x="95.38" y="263.5" width="2.81" height="2.81" style="fill:#f5f5f5"></rect><rect x="95.38" y="268.21" width="2.81" height="2.81" style="fill:#f5f5f5"></rect><rect x="95.38" y="272.91" width="2.81" height="2.81" style="fill:#f5f5f5"></rect><rect x="95.38" y="277.62" width="2.81" height="2.81" style="fill:#f5f5f5"></rect><rect x="95.38" y="282.33" width="2.81" height="2.81" style="fill:#f5f5f5"></rect><rect x="95.38" y="287.04" width="2.81" height="2.81" style="fill:#f5f5f5"></rect><rect x="95.38" y="291.75" width="2.81" height="2.81" style="fill:#f5f5f5"></rect><rect x="95.38" y="296.46" width="2.81" height="2.81" style="fill:#f5f5f5"></rect><rect x="95.38" y="301.16" width="2.81" height="2.81" style="fill:#f5f5f5"></rect><rect x="95.38" y="305.87" width="2.81" height="2.81" style="fill:#f5f5f5"></rect><rect x="95.38" y="310.58" width="2.81" height="2.81" style="fill:#f5f5f5"></rect><rect x="95.38" y="315.29" width="2.81" height="2.81" style="fill:#f5f5f5"></rect><rect x="95.38" y="320" width="2.81" height="2.81" style="fill:#f5f5f5"></rect><rect x="95.38" y="324.71" width="2.81" height="2.81" style="fill:#f5f5f5"></rect><rect x="90.92" y="239.95" width="2.81" height="2.81" style="fill:#f5f5f5"></rect><rect x="90.92" y="244.66" width="2.81" height="2.81" style="fill:#f5f5f5"></rect><rect x="90.92" y="249.37" width="2.81" height="2.81" style="fill:#f5f5f5"></rect><rect x="90.92" y="254.08" width="2.81" height="2.81" style="fill:#f5f5f5"></rect><rect x="90.92" y="258.79" width="2.81" height="2.81" style="fill:#f5f5f5"></rect><rect x="90.92" y="263.5" width="2.81" height="2.81" style="fill:#f5f5f5"></rect><rect x="90.92" y="268.21" width="2.81" height="2.81" style="fill:#f5f5f5"></rect><rect x="90.92" y="272.91" width="2.81" height="2.81" style="fill:#f5f5f5"></rect><rect x="90.92" y="277.62" width="2.81" height="2.81" style="fill:#f5f5f5"></rect><rect x="90.92" y="282.33" width="2.81" height="2.81" style="fill:#f5f5f5"></rect><rect x="90.92" y="287.04" width="2.81" height="2.81" style="fill:#f5f5f5"></rect><rect x="90.92" y="291.75" width="2.81" height="2.81" style="fill:#f5f5f5"></rect><rect x="90.92" y="296.46" width="2.81" height="2.81" style="fill:#f5f5f5"></rect><rect x="90.92" y="301.16" width="2.81" height="2.81" style="fill:#f5f5f5"></rect><rect x="90.92" y="305.87" width="2.81" height="2.81" style="fill:#f5f5f5"></rect><rect x="90.92" y="310.58" width="2.81" height="2.81" style="fill:#f5f5f5"></rect><rect x="90.92" y="315.29" width="2.81" height="2.81" style="fill:#f5f5f5"></rect><rect x="90.92" y="320" width="2.81" height="2.81" style="fill:#f5f5f5"></rect><rect x="90.92" y="324.71" width="2.81" height="2.81" style="fill:#f5f5f5"></rect><rect x="86.45" y="239.95" width="2.81" height="2.81" style="fill:#f5f5f5"></rect><rect x="86.45" y="244.66" width="2.81" height="2.81" style="fill:#f5f5f5"></rect><rect x="86.45" y="249.37" width="2.81" height="2.81" style="fill:#f5f5f5"></rect><rect x="86.45" y="254.08" width="2.81" height="2.81" style="fill:#f5f5f5"></rect><rect x="86.45" y="258.79" width="2.81" height="2.81" style="fill:#f5f5f5"></rect><rect x="86.45" y="263.5" width="2.81" height="2.81" style="fill:#f5f5f5"></rect><rect x="86.45" y="268.21" width="2.81" height="2.81" style="fill:#f5f5f5"></rect><rect x="86.45" y="272.91" width="2.81" height="2.81" style="fill:#f5f5f5"></rect><rect x="86.45" y="277.62" width="2.81" height="2.81" style="fill:#f5f5f5"></rect><rect x="86.45" y="282.33" width="2.81" height="2.81" style="fill:#f5f5f5"></rect><rect x="86.45" y="287.04" width="2.81" height="2.81" style="fill:#f5f5f5"></rect><rect x="86.45" y="291.75" width="2.81" height="2.81" style="fill:#f5f5f5"></rect><rect x="86.45" y="296.46" width="2.81" height="2.81" style="fill:#f5f5f5"></rect><rect x="86.45" y="301.16" width="2.81" height="2.81" style="fill:#f5f5f5"></rect><rect x="86.45" y="305.87" width="2.81" height="2.81" style="fill:#f5f5f5"></rect><rect x="81.99" y="239.95" width="2.81" height="2.81" style="fill:#f5f5f5"></rect><rect x="81.99" y="244.66" width="2.81" height="2.81" style="fill:#f5f5f5"></rect><rect x="81.99" y="249.37" width="2.81" height="2.81" style="fill:#f5f5f5"></rect><rect x="81.99" y="254.08" width="2.81" height="2.81" style="fill:#f5f5f5"></rect><rect x="81.99" y="258.79" width="2.81" height="2.81" style="fill:#f5f5f5"></rect><rect x="81.99" y="263.5" width="2.81" height="2.81" style="fill:#f5f5f5"></rect><rect x="81.99" y="268.21" width="2.81" height="2.81" style="fill:#f5f5f5"></rect><rect x="81.99" y="272.91" width="2.81" height="2.81" style="fill:#f5f5f5"></rect><rect x="81.99" y="277.62" width="2.81" height="2.81" style="fill:#f5f5f5"></rect><rect x="81.99" y="282.33" width="2.81" height="2.81" style="fill:#f5f5f5"></rect><rect x="81.99" y="287.04" width="2.81" height="2.81" style="fill:#f5f5f5"></rect><rect x="81.99" y="291.75" width="2.81" height="2.81" style="fill:#f5f5f5"></rect><rect x="81.99" y="296.46" width="2.81" height="2.81" style="fill:#f5f5f5"></rect><rect x="77.53" y="239.95" width="2.81" height="2.81" style="fill:#f5f5f5"></rect><rect x="77.53" y="244.66" width="2.81" height="2.81" style="fill:#f5f5f5"></rect><rect x="77.53" y="249.37" width="2.81" height="2.81" style="fill:#f5f5f5"></rect><rect x="77.53" y="254.08" width="2.81" height="2.81" style="fill:#f5f5f5"></rect><rect x="77.53" y="258.79" width="2.81" height="2.81" style="fill:#f5f5f5"></rect><rect x="77.53" y="263.5" width="2.81" height="2.81" style="fill:#f5f5f5"></rect><rect x="77.53" y="268.21" width="2.81" height="2.81" style="fill:#f5f5f5"></rect><rect x="77.53" y="272.91" width="2.81" height="2.81" style="fill:#f5f5f5"></rect><rect x="77.53" y="277.62" width="2.81" height="2.81" style="fill:#f5f5f5"></rect><rect x="77.53" y="282.33" width="2.81" height="2.81" style="fill:#f5f5f5"></rect><rect x="77.53" y="287.04" width="2.81" height="2.81" style="fill:#f5f5f5"></rect><rect x="77.53" y="291.75" width="2.81" height="2.81" style="fill:#f5f5f5"></rect><rect x="405.3" y="274.32" width="2.81" height="2.81" style="fill:#f5f5f5"></rect><rect x="405.3" y="279.03" width="2.81" height="2.81" style="fill:#f5f5f5"></rect><rect x="405.3" y="283.73" width="2.81" height="2.81" style="fill:#f5f5f5"></rect><rect x="405.3" y="288.44" width="2.81" height="2.81" style="fill:#f5f5f5"></rect><rect x="405.3" y="293.15" width="2.81" height="2.81" style="fill:#f5f5f5"></rect><rect x="405.3" y="297.86" width="2.81" height="2.81" style="fill:#f5f5f5"></rect><rect x="405.3" y="302.57" width="2.81" height="2.81" style="fill:#f5f5f5"></rect><rect x="405.3" y="307.28" width="2.81" height="2.81" style="fill:#f5f5f5"></rect><rect x="405.3" y="311.99" width="2.81" height="2.81" style="fill:#f5f5f5"></rect><rect x="405.3" y="316.69" width="2.81" height="2.81" style="fill:#f5f5f5"></rect><rect x="405.3" y="321.4" width="2.81" height="2.81" style="fill:#f5f5f5"></rect><rect x="405.3" y="326.11" width="2.81" height="2.81" style="fill:#f5f5f5"></rect><rect x="405.3" y="330.82" width="2.81" height="2.81" style="fill:#f5f5f5"></rect><rect x="405.3" y="335.53" width="2.81" height="2.81" style="fill:#f5f5f5"></rect><rect x="405.3" y="340.24" width="2.81" height="2.81" style="fill:#f5f5f5"></rect><rect x="405.3" y="344.94" width="2.81" height="2.81" style="fill:#f5f5f5"></rect><rect x="405.3" y="349.65" width="2.81" height="2.81" style="fill:#f5f5f5"></rect><rect x="405.3" y="354.36" width="2.81" height="2.81" style="fill:#f5f5f5"></rect><rect x="405.3" y="359.07" width="2.81" height="2.81" style="fill:#f5f5f5"></rect><rect x="405.3" y="363.78" width="2.81" height="2.81" style="fill:#f5f5f5"></rect><rect x="400.84" y="274.32" width="2.81" height="2.81" style="fill:#f5f5f5"></rect><rect x="400.84" y="279.03" width="2.81" height="2.81" style="fill:#f5f5f5"></rect><rect x="400.84" y="283.73" width="2.81" height="2.81" style="fill:#f5f5f5"></rect><rect x="400.84" y="288.44" width="2.81" height="2.81" style="fill:#f5f5f5"></rect><rect x="400.84" y="293.15" width="2.81" height="2.81" style="fill:#f5f5f5"></rect><rect x="400.84" y="297.86" width="2.81" height="2.81" style="fill:#f5f5f5"></rect><rect x="400.84" y="302.57" width="2.81" height="2.81" style="fill:#f5f5f5"></rect><rect x="400.84" y="307.28" width="2.81" height="2.81" style="fill:#f5f5f5"></rect><rect x="400.84" y="311.99" width="2.81" height="2.81" style="fill:#f5f5f5"></rect><rect x="400.84" y="316.69" width="2.81" height="2.81" style="fill:#f5f5f5"></rect><rect x="400.84" y="321.4" width="2.81" height="2.81" style="fill:#f5f5f5"></rect><rect x="400.84" y="326.11" width="2.81" height="2.81" style="fill:#f5f5f5"></rect><rect x="400.84" y="330.82" width="2.81" height="2.81" style="fill:#f5f5f5"></rect><rect x="400.84" y="335.53" width="2.81" height="2.81" style="fill:#f5f5f5"></rect><rect x="400.84" y="340.24" width="2.81" height="2.81" style="fill:#f5f5f5"></rect><rect x="400.84" y="344.94" width="2.81" height="2.81" style="fill:#f5f5f5"></rect><rect x="400.84" y="349.65" width="2.81" height="2.81" style="fill:#f5f5f5"></rect><rect x="400.84" y="354.36" width="2.81" height="2.81" style="fill:#f5f5f5"></rect><rect x="396.38" y="274.32" width="2.81" height="2.81" style="fill:#f5f5f5"></rect><rect x="396.38" y="279.03" width="2.81" height="2.81" style="fill:#f5f5f5"></rect><rect x="396.38" y="283.73" width="2.81" height="2.81" style="fill:#f5f5f5"></rect><rect x="396.38" y="288.44" width="2.81" height="2.81" style="fill:#f5f5f5"></rect><rect x="396.38" y="293.15" width="2.81" height="2.81" style="fill:#f5f5f5"></rect><rect x="396.38" y="297.86" width="2.81" height="2.81" style="fill:#f5f5f5"></rect><rect x="396.38" y="302.57" width="2.81" height="2.81" style="fill:#f5f5f5"></rect><rect x="396.38" y="307.28" width="2.81" height="2.81" style="fill:#f5f5f5"></rect><rect x="396.38" y="311.99" width="2.81" height="2.81" style="fill:#f5f5f5"></rect><rect x="396.38" y="316.69" width="2.81" height="2.81" style="fill:#f5f5f5"></rect><rect x="396.38" y="321.4" width="2.81" height="2.81" style="fill:#f5f5f5"></rect><rect x="396.38" y="326.11" width="2.81" height="2.81" style="fill:#f5f5f5"></rect><rect x="396.38" y="330.82" width="2.81" height="2.81" style="fill:#f5f5f5"></rect><rect x="396.38" y="335.53" width="2.81" height="2.81" style="fill:#f5f5f5"></rect><rect x="396.38" y="340.24" width="2.81" height="2.81" style="fill:#f5f5f5"></rect><rect x="396.38" y="344.94" width="2.81" height="2.81" style="fill:#f5f5f5"></rect><rect x="396.38" y="349.65" width="2.81" height="2.81" style="fill:#f5f5f5"></rect><rect x="396.38" y="354.36" width="2.81" height="2.81" style="fill:#f5f5f5"></rect><rect x="421.99" y="308.68" width="2.81" height="2.81" style="fill:#f5f5f5"></rect><rect x="421.99" y="313.39" width="2.81" height="2.81" style="fill:#f5f5f5"></rect><rect x="421.99" y="318.1" width="2.81" height="2.81" style="fill:#f5f5f5"></rect><rect x="421.99" y="322.81" width="2.81" height="2.81" style="fill:#f5f5f5"></rect><rect x="421.99" y="327.51" width="2.81" height="2.81" style="fill:#f5f5f5"></rect><rect x="421.99" y="332.22" width="2.81" height="2.81" style="fill:#f5f5f5"></rect><rect x="421.99" y="336.93" width="2.81" height="2.81" style="fill:#f5f5f5"></rect><rect x="421.99" y="341.64" width="2.81" height="2.81" style="fill:#f5f5f5"></rect><rect x="421.99" y="346.35" width="2.81" height="2.81" style="fill:#f5f5f5"></rect><rect x="421.99" y="351.06" width="2.81" height="2.81" style="fill:#f5f5f5"></rect><rect x="421.99" y="355.76" width="2.81" height="2.81" style="fill:#f5f5f5"></rect><rect x="421.99" y="360.47" width="2.81" height="2.81" style="fill:#f5f5f5"></rect><rect x="421.99" y="365.18" width="2.81" height="2.81" style="fill:#f5f5f5"></rect><rect x="417.53" y="308.68" width="2.81" height="2.81" style="fill:#f5f5f5"></rect><rect x="417.53" y="313.39" width="2.81" height="2.81" style="fill:#f5f5f5"></rect><rect x="417.53" y="318.1" width="2.81" height="2.81" style="fill:#f5f5f5"></rect><rect x="417.53" y="322.81" width="2.81" height="2.81" style="fill:#f5f5f5"></rect><rect x="417.53" y="327.51" width="2.81" height="2.81" style="fill:#f5f5f5"></rect><rect x="417.53" y="332.22" width="2.81" height="2.81" style="fill:#f5f5f5"></rect><rect x="417.53" y="336.93" width="2.81" height="2.81" style="fill:#f5f5f5"></rect><rect x="417.53" y="341.64" width="2.81" height="2.81" style="fill:#f5f5f5"></rect><rect x="417.53" y="346.35" width="2.81" height="2.81" style="fill:#f5f5f5"></rect><rect x="417.53" y="351.06" width="2.81" height="2.81" style="fill:#f5f5f5"></rect><rect x="417.53" y="355.76" width="2.81" height="2.81" style="fill:#f5f5f5"></rect><rect x="417.53" y="360.47" width="2.81" height="2.81" style="fill:#f5f5f5"></rect><rect x="417.53" y="365.18" width="2.81" height="2.81" style="fill:#f5f5f5"></rect><rect x="413.07" y="308.68" width="2.81" height="2.81" style="fill:#f5f5f5"></rect><rect x="413.07" y="313.39" width="2.81" height="2.81" style="fill:#f5f5f5"></rect><rect x="413.07" y="318.1" width="2.81" height="2.81" style="fill:#f5f5f5"></rect><rect x="413.07" y="322.81" width="2.81" height="2.81" style="fill:#f5f5f5"></rect><rect x="413.07" y="327.51" width="2.81" height="2.81" style="fill:#f5f5f5"></rect><rect x="413.07" y="332.22" width="2.81" height="2.81" style="fill:#f5f5f5"></rect><rect x="413.07" y="336.93" width="2.81" height="2.81" style="fill:#f5f5f5"></rect><rect x="413.07" y="341.64" width="2.81" height="2.81" style="fill:#f5f5f5"></rect><rect x="413.07" y="346.35" width="2.81" height="2.81" style="fill:#f5f5f5"></rect><rect x="413.07" y="351.06" width="2.81" height="2.81" style="fill:#f5f5f5"></rect><rect x="413.07" y="355.76" width="2.81" height="2.81" style="fill:#f5f5f5"></rect><rect x="413.07" y="360.47" width="2.81" height="2.81" style="fill:#f5f5f5"></rect><rect x="413.07" y="365.18" width="2.81" height="2.81" style="fill:#f5f5f5"></rect><rect x="413.07" y="369.89" width="2.81" height="2.81" style="fill:#f5f5f5"></rect><rect x="388.29" y="310.09" width="2.81" height="2.81" style="fill:#f5f5f5"></rect><rect x="388.29" y="314.79" width="2.81" height="2.81" style="fill:#f5f5f5"></rect><rect x="388.29" y="319.5" width="2.81" height="2.81" style="fill:#f5f5f5"></rect><rect x="388.29" y="324.21" width="2.81" height="2.81" style="fill:#f5f5f5"></rect><rect x="388.29" y="328.92" width="2.81" height="2.81" style="fill:#f5f5f5"></rect><rect x="388.29" y="333.63" width="2.81" height="2.81" style="fill:#f5f5f5"></rect><rect x="388.29" y="338.34" width="2.81" height="2.81" style="fill:#f5f5f5"></rect><rect x="388.29" y="343.04" width="2.81" height="2.81" style="fill:#f5f5f5"></rect><rect x="388.29" y="347.75" width="2.81" height="2.81" style="fill:#f5f5f5"></rect><rect x="388.29" y="352.46" width="2.81" height="2.81" style="fill:#f5f5f5"></rect><rect x="388.29" y="366.59" width="2.81" height="2.81" style="fill:#f5f5f5"></rect><rect x="383.83" y="310.09" width="2.81" height="2.81" style="fill:#f5f5f5"></rect><rect x="383.83" y="314.79" width="2.81" height="2.81" style="fill:#f5f5f5"></rect><rect x="383.83" y="319.5" width="2.81" height="2.81" style="fill:#f5f5f5"></rect><rect x="383.83" y="324.21" width="2.81" height="2.81" style="fill:#f5f5f5"></rect><rect x="383.83" y="328.92" width="2.81" height="2.81" style="fill:#f5f5f5"></rect><rect x="383.83" y="333.63" width="2.81" height="2.81" style="fill:#f5f5f5"></rect><rect x="383.83" y="338.34" width="2.81" height="2.81" style="fill:#f5f5f5"></rect><rect x="383.83" y="343.04" width="2.81" height="2.81" style="fill:#f5f5f5"></rect><rect x="383.83" y="347.75" width="2.81" height="2.81" style="fill:#f5f5f5"></rect><rect x="383.83" y="361.88" width="2.81" height="2.81" style="fill:#f5f5f5"></rect><rect x="383.83" y="366.59" width="2.81" height="2.81" style="fill:#f5f5f5"></rect><rect x="379.37" y="310.09" width="2.81" height="2.81" style="fill:#f5f5f5"></rect><rect x="379.37" y="314.79" width="2.81" height="2.81" style="fill:#f5f5f5"></rect><rect x="379.37" y="319.5" width="2.81" height="2.81" style="fill:#f5f5f5"></rect><rect x="379.37" y="324.21" width="2.81" height="2.81" style="fill:#f5f5f5"></rect><rect x="379.37" y="328.92" width="2.81" height="2.81" style="fill:#f5f5f5"></rect><rect x="379.37" y="333.63" width="2.81" height="2.81" style="fill:#f5f5f5"></rect><rect x="379.37" y="338.34" width="2.81" height="2.81" style="fill:#f5f5f5"></rect><rect x="379.37" y="343.04" width="2.81" height="2.81" style="fill:#f5f5f5"></rect><rect x="379.37" y="357.17" width="2.81" height="2.81" style="fill:#f5f5f5"></rect><rect x="379.37" y="361.88" width="2.81" height="2.81" style="fill:#f5f5f5"></rect><rect x="379.37" y="366.59" width="2.81" height="2.81" style="fill:#f5f5f5"></rect><rect x="337.9" y="238.55" width="2.81" height="2.81" style="fill:#f5f5f5"></rect><rect x="337.9" y="243.26" width="2.81" height="2.81" style="fill:#f5f5f5"></rect><rect x="337.9" y="247.97" width="2.81" height="2.81" style="fill:#f5f5f5"></rect><rect x="337.9" y="252.68" width="2.81" height="2.81" style="fill:#f5f5f5"></rect><rect x="337.9" y="257.38" width="2.81" height="2.81" style="fill:#f5f5f5"></rect><rect x="337.9" y="262.09" width="2.81" height="2.81" style="fill:#f5f5f5"></rect><rect x="337.9" y="266.8" width="2.81" height="2.81" style="fill:#f5f5f5"></rect><rect x="337.9" y="271.51" width="2.81" height="2.81" style="fill:#f5f5f5"></rect><rect x="337.9" y="276.22" width="2.81" height="2.81" style="fill:#f5f5f5"></rect><rect x="337.9" y="280.93" width="2.81" height="2.81" style="fill:#f5f5f5"></rect><rect x="337.9" y="285.63" width="2.81" height="2.81" style="fill:#f5f5f5"></rect><rect x="337.9" y="290.34" width="2.81" height="2.81" style="fill:#f5f5f5"></rect><rect x="337.9" y="295.05" width="2.81" height="2.81" style="fill:#f5f5f5"></rect><rect x="337.9" y="299.76" width="2.81" height="2.81" style="fill:#f5f5f5"></rect><rect x="337.9" y="304.47" width="2.81" height="2.81" style="fill:#f5f5f5"></rect><rect x="337.9" y="309.18" width="2.81" height="2.81" style="fill:#f5f5f5"></rect><rect x="337.9" y="313.88" width="2.81" height="2.81" style="fill:#f5f5f5"></rect><rect x="337.9" y="323.3" width="2.81" height="2.81" style="fill:#f5f5f5"></rect><rect x="337.9" y="328.01" width="2.81" height="2.81" style="fill:#f5f5f5"></rect><rect x="337.9" y="332.72" width="2.81" height="2.81" style="fill:#f5f5f5"></rect><rect x="337.9" y="337.43" width="2.81" height="2.81" style="fill:#f5f5f5"></rect><rect x="337.9" y="342.14" width="2.81" height="2.81" style="fill:#f5f5f5"></rect><rect x="333.44" y="238.55" width="2.81" height="2.81" style="fill:#f5f5f5"></rect><rect x="333.44" y="243.26" width="2.81" height="2.81" style="fill:#f5f5f5"></rect><rect x="333.44" y="247.97" width="2.81" height="2.81" style="fill:#f5f5f5"></rect><rect x="333.44" y="252.68" width="2.81" height="2.81" style="fill:#f5f5f5"></rect><rect x="333.44" y="257.38" width="2.81" height="2.81" style="fill:#f5f5f5"></rect><rect x="333.44" y="262.09" width="2.81" height="2.81" style="fill:#f5f5f5"></rect><rect x="333.44" y="266.8" width="2.81" height="2.81" style="fill:#f5f5f5"></rect><rect x="333.44" y="271.51" width="2.81" height="2.81" style="fill:#f5f5f5"></rect><rect x="333.44" y="276.22" width="2.81" height="2.81" style="fill:#f5f5f5"></rect><rect x="333.44" y="280.93" width="2.81" height="2.81" style="fill:#f5f5f5"></rect><rect x="333.44" y="285.63" width="2.81" height="2.81" style="fill:#f5f5f5"></rect><rect x="333.44" y="290.34" width="2.81" height="2.81" style="fill:#f5f5f5"></rect><rect x="333.44" y="295.05" width="2.81" height="2.81" style="fill:#f5f5f5"></rect><rect x="333.44" y="299.76" width="2.81" height="2.81" style="fill:#f5f5f5"></rect><rect x="333.44" y="304.47" width="2.81" height="2.81" style="fill:#f5f5f5"></rect><rect x="333.44" y="309.18" width="2.81" height="2.81" style="fill:#f5f5f5"></rect><rect x="333.44" y="337.43" width="2.81" height="2.81" style="fill:#f5f5f5"></rect><rect x="333.44" y="342.14" width="2.81" height="2.81" style="fill:#f5f5f5"></rect><rect x="328.98" y="238.55" width="2.81" height="2.81" style="fill:#f5f5f5"></rect><rect x="328.98" y="243.26" width="2.81" height="2.81" style="fill:#f5f5f5"></rect><rect x="328.98" y="247.97" width="2.81" height="2.81" style="fill:#f5f5f5"></rect><rect x="328.98" y="252.68" width="2.81" height="2.81" style="fill:#f5f5f5"></rect><rect x="328.98" y="257.38" width="2.81" height="2.81" style="fill:#f5f5f5"></rect><rect x="328.98" y="262.09" width="2.81" height="2.81" style="fill:#f5f5f5"></rect><rect x="328.98" y="266.8" width="2.81" height="2.81" style="fill:#f5f5f5"></rect><rect x="328.98" y="271.51" width="2.81" height="2.81" style="fill:#f5f5f5"></rect><rect x="328.98" y="276.22" width="2.81" height="2.81" style="fill:#f5f5f5"></rect><rect x="328.98" y="280.93" width="2.81" height="2.81" style="fill:#f5f5f5"></rect><rect x="328.98" y="285.63" width="2.81" height="2.81" style="fill:#f5f5f5"></rect><rect x="328.98" y="290.34" width="2.81" height="2.81" style="fill:#f5f5f5"></rect><rect x="328.98" y="295.05" width="2.81" height="2.81" style="fill:#f5f5f5"></rect><rect x="328.98" y="299.76" width="2.81" height="2.81" style="fill:#f5f5f5"></rect><rect x="328.98" y="304.47" width="2.81" height="2.81" style="fill:#f5f5f5"></rect><rect x="328.98" y="309.18" width="2.81" height="2.81" style="fill:#f5f5f5"></rect><rect x="328.98" y="318.59" width="2.81" height="2.81" style="fill:#f5f5f5"></rect><rect x="328.98" y="323.3" width="2.81" height="2.81" style="fill:#f5f5f5"></rect><rect x="328.98" y="328.01" width="2.81" height="2.81" style="fill:#f5f5f5"></rect><rect x="328.98" y="332.72" width="2.81" height="2.81" style="fill:#f5f5f5"></rect><rect x="328.98" y="342.14" width="2.81" height="2.81" style="fill:#f5f5f5"></rect><rect x="354.09" y="297.86" width="2.81" height="2.81" style="fill:#f5f5f5"></rect><rect x="354.09" y="302.57" width="2.81" height="2.81" style="fill:#f5f5f5"></rect><rect x="354.09" y="307.28" width="2.81" height="2.81" style="fill:#f5f5f5"></rect><rect x="354.09" y="311.99" width="2.81" height="2.81" style="fill:#f5f5f5"></rect><rect x="354.09" y="316.69" width="2.81" height="2.81" style="fill:#f5f5f5"></rect><rect x="354.09" y="321.4" width="2.81" height="2.81" style="fill:#f5f5f5"></rect><rect x="354.09" y="326.11" width="2.81" height="2.81" style="fill:#f5f5f5"></rect><rect x="354.09" y="335.53" width="2.81" height="2.81" style="fill:#f5f5f5"></rect><rect x="354.09" y="340.24" width="2.81" height="2.81" style="fill:#f5f5f5"></rect><rect x="354.09" y="344.94" width="2.81" height="2.81" style="fill:#f5f5f5"></rect><rect x="354.09" y="349.65" width="2.81" height="2.81" style="fill:#f5f5f5"></rect><rect x="354.09" y="354.36" width="2.81" height="2.81" style="fill:#f5f5f5"></rect><rect x="354.09" y="359.07" width="2.81" height="2.81" style="fill:#f5f5f5"></rect><rect x="354.09" y="363.78" width="2.81" height="2.81" style="fill:#f5f5f5"></rect><rect x="354.09" y="368.49" width="2.81" height="2.81" style="fill:#f5f5f5"></rect><rect x="349.63" y="297.86" width="2.81" height="2.81" style="fill:#f5f5f5"></rect><rect x="349.63" y="302.57" width="2.81" height="2.81" style="fill:#f5f5f5"></rect><rect x="349.63" y="307.28" width="2.81" height="2.81" style="fill:#f5f5f5"></rect><rect x="349.63" y="311.99" width="2.81" height="2.81" style="fill:#f5f5f5"></rect><rect x="349.63" y="316.69" width="2.81" height="2.81" style="fill:#f5f5f5"></rect><rect x="349.63" y="321.4" width="2.81" height="2.81" style="fill:#f5f5f5"></rect><rect x="349.63" y="335.53" width="2.81" height="2.81" style="fill:#f5f5f5"></rect><rect x="349.63" y="340.24" width="2.81" height="2.81" style="fill:#f5f5f5"></rect><rect x="349.63" y="344.94" width="2.81" height="2.81" style="fill:#f5f5f5"></rect><rect x="349.63" y="349.65" width="2.81" height="2.81" style="fill:#f5f5f5"></rect><rect x="349.63" y="354.36" width="2.81" height="2.81" style="fill:#f5f5f5"></rect><rect x="349.63" y="359.07" width="2.81" height="2.81" style="fill:#f5f5f5"></rect><rect x="349.63" y="363.78" width="2.81" height="2.81" style="fill:#f5f5f5"></rect><rect x="349.63" y="368.49" width="2.81" height="2.81" style="fill:#f5f5f5"></rect><rect x="345.17" y="297.86" width="2.81" height="2.81" style="fill:#f5f5f5"></rect><rect x="345.17" y="302.57" width="2.81" height="2.81" style="fill:#f5f5f5"></rect><rect x="345.17" y="307.28" width="2.81" height="2.81" style="fill:#f5f5f5"></rect><rect x="345.17" y="311.99" width="2.81" height="2.81" style="fill:#f5f5f5"></rect><rect x="345.17" y="316.69" width="2.81" height="2.81" style="fill:#f5f5f5"></rect><rect x="345.17" y="321.4" width="2.81" height="2.81" style="fill:#f5f5f5"></rect><rect x="345.17" y="330.82" width="2.81" height="2.81" style="fill:#f5f5f5"></rect><rect x="345.17" y="335.53" width="2.81" height="2.81" style="fill:#f5f5f5"></rect><rect x="345.17" y="340.24" width="2.81" height="2.81" style="fill:#f5f5f5"></rect><rect x="345.17" y="344.94" width="2.81" height="2.81" style="fill:#f5f5f5"></rect><rect x="345.17" y="349.65" width="2.81" height="2.81" style="fill:#f5f5f5"></rect><rect x="345.17" y="354.36" width="2.81" height="2.81" style="fill:#f5f5f5"></rect><rect x="345.17" y="359.07" width="2.81" height="2.81" style="fill:#f5f5f5"></rect><rect x="345.17" y="363.78" width="2.81" height="2.81" style="fill:#f5f5f5"></rect><rect x="345.17" y="368.49" width="2.81" height="2.81" style="fill:#f5f5f5"></rect><rect x="251.17" y="271.51" width="2.81" height="2.81" style="fill:#f5f5f5"></rect><rect x="251.17" y="276.22" width="2.81" height="2.81" style="fill:#f5f5f5"></rect><rect x="251.17" y="280.93" width="2.81" height="2.81" style="fill:#f5f5f5"></rect><rect x="251.17" y="285.63" width="2.81" height="2.81" style="fill:#f5f5f5"></rect><rect x="251.17" y="290.34" width="2.81" height="2.81" style="fill:#f5f5f5"></rect><rect x="251.17" y="295.05" width="2.81" height="2.81" style="fill:#f5f5f5"></rect><rect x="251.17" y="299.76" width="2.81" height="2.81" style="fill:#f5f5f5"></rect><rect x="251.17" y="304.47" width="2.81" height="2.81" style="fill:#f5f5f5"></rect><rect x="251.17" y="309.18" width="2.81" height="2.81" style="fill:#f5f5f5"></rect><rect x="251.17" y="313.88" width="2.81" height="2.81" style="fill:#f5f5f5"></rect><rect x="251.17" y="318.59" width="2.81" height="2.81" style="fill:#f5f5f5"></rect><rect x="251.17" y="323.3" width="2.81" height="2.81" style="fill:#f5f5f5"></rect><rect x="251.17" y="328.01" width="2.81" height="2.81" style="fill:#f5f5f5"></rect><rect x="251.17" y="337.43" width="2.81" height="2.81" style="fill:#f5f5f5"></rect><rect x="251.17" y="342.14" width="2.81" height="2.81" style="fill:#f5f5f5"></rect><rect x="251.17" y="346.84" width="2.81" height="2.81" style="fill:#f5f5f5"></rect><rect x="251.17" y="351.55" width="2.81" height="2.81" style="fill:#f5f5f5"></rect><rect x="251.17" y="360.97" width="2.81" height="2.81" style="fill:#f5f5f5"></rect><rect x="251.17" y="365.68" width="2.81" height="2.81" style="fill:#f5f5f5"></rect><rect x="251.17" y="370.39" width="2.81" height="2.81" style="fill:#f5f5f5"></rect><rect x="246.71" y="271.51" width="2.81" height="2.81" style="fill:#f5f5f5"></rect><rect x="246.71" y="276.22" width="2.81" height="2.81" style="fill:#f5f5f5"></rect><rect x="246.71" y="280.93" width="2.81" height="2.81" style="fill:#f5f5f5"></rect><rect x="246.71" y="285.63" width="2.81" height="2.81" style="fill:#f5f5f5"></rect><rect x="246.71" y="290.34" width="2.81" height="2.81" style="fill:#f5f5f5"></rect><rect x="246.71" y="295.05" width="2.81" height="2.81" style="fill:#f5f5f5"></rect><rect x="246.71" y="299.76" width="2.81" height="2.81" style="fill:#f5f5f5"></rect><rect x="246.71" y="304.47" width="2.81" height="2.81" style="fill:#f5f5f5"></rect><rect x="246.71" y="309.18" width="2.81" height="2.81" style="fill:#f5f5f5"></rect><rect x="246.71" y="313.88" width="2.81" height="2.81" style="fill:#f5f5f5"></rect><rect x="246.71" y="318.59" width="2.81" height="2.81" style="fill:#f5f5f5"></rect><rect x="246.71" y="323.3" width="2.81" height="2.81" style="fill:#f5f5f5"></rect><rect x="246.71" y="328.01" width="2.81" height="2.81" style="fill:#f5f5f5"></rect><rect x="246.71" y="342.14" width="2.81" height="2.81" style="fill:#f5f5f5"></rect><rect x="246.71" y="346.84" width="2.81" height="2.81" style="fill:#f5f5f5"></rect><rect x="246.71" y="356.26" width="2.81" height="2.81" style="fill:#f5f5f5"></rect><rect x="246.71" y="360.97" width="2.81" height="2.81" style="fill:#f5f5f5"></rect><rect x="246.71" y="365.68" width="2.81" height="2.81" style="fill:#f5f5f5"></rect><rect x="246.71" y="370.39" width="2.81" height="2.81" style="fill:#f5f5f5"></rect><rect x="242.24" y="271.51" width="2.81" height="2.81" style="fill:#f5f5f5"></rect><rect x="242.24" y="276.22" width="2.81" height="2.81" style="fill:#f5f5f5"></rect><rect x="242.24" y="280.93" width="2.81" height="2.81" style="fill:#f5f5f5"></rect><rect x="242.24" y="285.63" width="2.81" height="2.81" style="fill:#f5f5f5"></rect><rect x="242.24" y="290.34" width="2.81" height="2.81" style="fill:#f5f5f5"></rect><rect x="242.24" y="295.05" width="2.81" height="2.81" style="fill:#f5f5f5"></rect><rect x="242.24" y="299.76" width="2.81" height="2.81" style="fill:#f5f5f5"></rect><rect x="242.24" y="304.47" width="2.81" height="2.81" style="fill:#f5f5f5"></rect><rect x="242.24" y="309.18" width="2.81" height="2.81" style="fill:#f5f5f5"></rect><rect x="242.24" y="313.88" width="2.81" height="2.81" style="fill:#f5f5f5"></rect><rect x="242.24" y="318.59" width="2.81" height="2.81" style="fill:#f5f5f5"></rect><rect x="242.24" y="323.3" width="2.81" height="2.81" style="fill:#f5f5f5"></rect><rect x="242.24" y="328.01" width="2.81" height="2.81" style="fill:#f5f5f5"></rect><rect x="242.24" y="332.72" width="2.81" height="2.81" style="fill:#f5f5f5"></rect><rect x="242.24" y="342.14" width="2.81" height="2.81" style="fill:#f5f5f5"></rect><rect x="242.24" y="351.55" width="2.81" height="2.81" style="fill:#f5f5f5"></rect><rect x="242.24" y="356.26" width="2.81" height="2.81" style="fill:#f5f5f5"></rect><rect x="242.24" y="360.97" width="2.81" height="2.81" style="fill:#f5f5f5"></rect><rect x="242.24" y="365.68" width="2.81" height="2.81" style="fill:#f5f5f5"></rect><rect x="242.24" y="370.39" width="2.81" height="2.81" style="fill:#f5f5f5"></rect><rect x="269.34" y="298.36" width="2.81" height="2.81" style="fill:#f5f5f5"></rect><rect x="269.34" y="303.06" width="2.81" height="2.81" style="fill:#f5f5f5"></rect><rect x="269.34" y="307.77" width="2.81" height="2.81" style="fill:#f5f5f5"></rect><rect x="269.34" y="312.48" width="2.81" height="2.81" style="fill:#f5f5f5"></rect><rect x="269.34" y="317.19" width="2.81" height="2.81" style="fill:#f5f5f5"></rect><rect x="269.34" y="321.9" width="2.81" height="2.81" style="fill:#f5f5f5"></rect><rect x="269.34" y="336.02" width="2.81" height="2.81" style="fill:#f5f5f5"></rect><rect x="269.34" y="340.73" width="2.81" height="2.81" style="fill:#f5f5f5"></rect><rect x="269.34" y="345.44" width="2.81" height="2.81" style="fill:#f5f5f5"></rect><rect x="269.34" y="350.15" width="2.81" height="2.81" style="fill:#f5f5f5"></rect><rect x="269.34" y="354.86" width="2.81" height="2.81" style="fill:#f5f5f5"></rect><rect x="269.34" y="359.56" width="2.81" height="2.81" style="fill:#f5f5f5"></rect><rect x="269.34" y="364.27" width="2.81" height="2.81" style="fill:#f5f5f5"></rect><rect x="264.88" y="298.36" width="2.81" height="2.81" style="fill:#f5f5f5"></rect><rect x="264.88" y="303.06" width="2.81" height="2.81" style="fill:#f5f5f5"></rect><rect x="264.88" y="307.77" width="2.81" height="2.81" style="fill:#f5f5f5"></rect><rect x="264.88" y="312.48" width="2.81" height="2.81" style="fill:#f5f5f5"></rect><rect x="264.88" y="317.19" width="2.81" height="2.81" style="fill:#f5f5f5"></rect><rect x="264.88" y="321.9" width="2.81" height="2.81" style="fill:#f5f5f5"></rect><rect x="264.88" y="336.02" width="2.81" height="2.81" style="fill:#f5f5f5"></rect><rect x="264.88" y="340.73" width="2.81" height="2.81" style="fill:#f5f5f5"></rect><rect x="264.88" y="345.44" width="2.81" height="2.81" style="fill:#f5f5f5"></rect><rect x="264.88" y="350.15" width="2.81" height="2.81" style="fill:#f5f5f5"></rect><rect x="264.88" y="354.86" width="2.81" height="2.81" style="fill:#f5f5f5"></rect><rect x="264.88" y="359.56" width="2.81" height="2.81" style="fill:#f5f5f5"></rect><rect x="264.88" y="368.98" width="2.81" height="2.81" style="fill:#f5f5f5"></rect><rect x="116.69" y="277.62" width="2.81" height="2.81" style="fill:#f5f5f5"></rect><rect x="116.69" y="282.33" width="2.81" height="2.81" style="fill:#f5f5f5"></rect><rect x="116.69" y="287.04" width="2.81" height="2.81" style="fill:#f5f5f5"></rect><rect x="116.69" y="291.75" width="2.81" height="2.81" style="fill:#f5f5f5"></rect><rect x="116.69" y="296.46" width="2.81" height="2.81" style="fill:#f5f5f5"></rect><rect x="116.69" y="301.16" width="2.81" height="2.81" style="fill:#f5f5f5"></rect><rect x="116.69" y="305.87" width="2.81" height="2.81" style="fill:#f5f5f5"></rect><rect x="116.69" y="310.58" width="2.81" height="2.81" style="fill:#f5f5f5"></rect><rect x="116.69" y="315.29" width="2.81" height="2.81" style="fill:#f5f5f5"></rect><rect x="116.69" y="320" width="2.81" height="2.81" style="fill:#f5f5f5"></rect><rect x="116.69" y="324.71" width="2.81" height="2.81" style="fill:#f5f5f5"></rect><rect x="116.69" y="334.12" width="2.81" height="2.81" style="fill:#f5f5f5"></rect><rect x="116.69" y="338.83" width="2.81" height="2.81" style="fill:#f5f5f5"></rect><rect x="116.69" y="343.54" width="2.81" height="2.81" style="fill:#f5f5f5"></rect><rect x="116.69" y="348.25" width="2.81" height="2.81" style="fill:#f5f5f5"></rect><rect x="116.69" y="352.96" width="2.81" height="2.81" style="fill:#f5f5f5"></rect><rect x="116.69" y="357.66" width="2.81" height="2.81" style="fill:#f5f5f5"></rect><rect x="116.69" y="362.37" width="2.81" height="2.81" style="fill:#f5f5f5"></rect><rect x="116.69" y="367.08" width="2.81" height="2.81" style="fill:#f5f5f5"></rect><rect x="112.23" y="277.62" width="2.81" height="2.81" style="fill:#f5f5f5"></rect><rect x="112.23" y="282.33" width="2.81" height="2.81" style="fill:#f5f5f5"></rect><rect x="112.23" y="287.04" width="2.81" height="2.81" style="fill:#f5f5f5"></rect><rect x="112.23" y="291.75" width="2.81" height="2.81" style="fill:#f5f5f5"></rect><rect x="112.23" y="296.46" width="2.81" height="2.81" style="fill:#f5f5f5"></rect><rect x="112.23" y="301.16" width="2.81" height="2.81" style="fill:#f5f5f5"></rect><rect x="112.23" y="305.87" width="2.81" height="2.81" style="fill:#f5f5f5"></rect><rect x="112.23" y="310.58" width="2.81" height="2.81" style="fill:#f5f5f5"></rect><rect x="112.23" y="315.29" width="2.81" height="2.81" style="fill:#f5f5f5"></rect><rect x="112.23" y="320" width="2.81" height="2.81" style="fill:#f5f5f5"></rect><rect x="112.23" y="324.71" width="2.81" height="2.81" style="fill:#f5f5f5"></rect><rect x="112.23" y="329.41" width="2.81" height="2.81" style="fill:#f5f5f5"></rect><rect x="112.23" y="334.12" width="2.81" height="2.81" style="fill:#f5f5f5"></rect><rect x="112.23" y="338.83" width="2.81" height="2.81" style="fill:#f5f5f5"></rect><rect x="112.23" y="343.54" width="2.81" height="2.81" style="fill:#f5f5f5"></rect><rect x="112.23" y="348.25" width="2.81" height="2.81" style="fill:#f5f5f5"></rect><rect x="112.23" y="352.96" width="2.81" height="2.81" style="fill:#f5f5f5"></rect><rect x="112.23" y="357.66" width="2.81" height="2.81" style="fill:#f5f5f5"></rect><rect x="112.23" y="362.37" width="2.81" height="2.81" style="fill:#f5f5f5"></rect><rect x="112.23" y="367.08" width="2.81" height="2.81" style="fill:#f5f5f5"></rect><rect x="138.66" y="295.96" width="2.81" height="2.81" style="fill:#f5f5f5"></rect><rect x="138.66" y="300.67" width="2.81" height="2.81" style="fill:#f5f5f5"></rect><rect x="138.66" y="305.38" width="2.81" height="2.81" style="fill:#f5f5f5"></rect><rect x="138.66" y="310.09" width="2.81" height="2.81" style="fill:#f5f5f5"></rect><rect x="138.66" y="314.79" width="2.81" height="2.81" style="fill:#f5f5f5"></rect><rect x="138.66" y="319.5" width="2.81" height="2.81" style="fill:#f5f5f5"></rect><rect x="138.66" y="324.21" width="2.81" height="2.81" style="fill:#f5f5f5"></rect><rect x="138.66" y="328.92" width="2.81" height="2.81" style="fill:#f5f5f5"></rect><rect x="138.66" y="333.63" width="2.81" height="2.81" style="fill:#f5f5f5"></rect><rect x="138.66" y="338.34" width="2.81" height="2.81" style="fill:#f5f5f5"></rect><rect x="134.2" y="295.96" width="2.81" height="2.81" style="fill:#f5f5f5"></rect><rect x="134.2" y="300.67" width="2.81" height="2.81" style="fill:#f5f5f5"></rect><rect x="134.2" y="305.38" width="2.81" height="2.81" style="fill:#f5f5f5"></rect><rect x="134.2" y="310.09" width="2.81" height="2.81" style="fill:#f5f5f5"></rect><rect x="134.2" y="314.79" width="2.81" height="2.81" style="fill:#f5f5f5"></rect><rect x="134.2" y="319.5" width="2.81" height="2.81" style="fill:#f5f5f5"></rect><rect x="134.2" y="324.21" width="2.81" height="2.81" style="fill:#f5f5f5"></rect><rect x="134.2" y="328.92" width="2.81" height="2.81" style="fill:#f5f5f5"></rect><rect x="134.2" y="333.63" width="2.81" height="2.81" style="fill:#f5f5f5"></rect><path d="M130.22,135.48c0-8.11-4.65-10.8-8.23-11.28-5.87-.8-10.06,3.67-10.06,3.67s-3.18-10.75-14.71-10.75-15.07,11.74-15.07,11.74a14.75,14.75,0,0,0-10.93-2.48c-4.52.76-7.22,4.09-10.13,9.1Z" style="fill:#f5f5f5"></path><path d="M299.39,102.09c0-10.46-6-13.93-10.63-14.56-7.57-1-13,4.74-13,4.74s-4.12-13.88-19-13.88-19.45,15.16-19.45,15.16a19.1,19.1,0,0,0-14.12-3.2c-5.85,1-9.32,5.28-13.09,11.74Z" style="fill:#f5f5f5"></path><path d="M156.79,179.21s2.57-6.35,8.92-7.05a10.36,10.36,0,0,1,9.42,3.53s5-8.86,14.67-7.59c10.63,1.39,10,11.11,10,11.11Z" style="fill:#f5f5f5"></path></g><g id="freepik--Shadow--inject-1"><ellipse id="freepik--path--inject-1" cx="250" cy="416.24" rx="193.89" ry="11.32" style="fill:#f5f5f5"></ellipse></g><g id="freepik--Barrier--inject-1"><polygon points="132.18 414.27 132.18 417.21 104.89 417.21 104.89 414.27 115.15 411.96 115.15 313.6 121.92 313.6 121.92 411.96 132.18 414.27" style="fill:#263238"></polygon><polygon points="222.27 414.27 222.27 417.21 194.98 417.21 194.98 414.27 205.24 411.96 205.24 313.6 212.01 313.6 212.01 411.96 222.27 414.27" style="fill:#263238"></polygon><polygon points="218.81 414.27 218.81 417.21 194.98 417.21 194.98 414.27 205.24 411.96 205.24 313.6 208.55 313.6 208.55 411.96 218.81 414.27" style="fill:#fff;opacity:0.2;isolation:isolate"></polygon><rect x="103.75" y="317.11" width="119.66" height="23.36" style="fill:#263238"></rect><rect x="103.75" y="317.11" width="2.36" height="23.36" style="opacity:0.2;isolation:isolate"></rect><polygon points="130.62 340.42 118.53 340.42 107.04 317.16 119.13 317.16 130.62 340.42" style="fill:#fff;opacity:0.4;isolation:isolate"></polygon><polygon points="153.82 340.42 141.73 340.42 130.24 317.16 142.33 317.16 153.82 340.42" style="fill:#fff;opacity:0.4;isolation:isolate"></polygon><polygon points="177.01 340.42 164.93 340.42 153.44 317.16 165.53 317.16 177.01 340.42" style="fill:#fff;opacity:0.4;isolation:isolate"></polygon><polygon points="200.21 340.42 188.12 340.42 176.63 317.16 188.72 317.16 200.21 340.42" style="fill:#fff;opacity:0.4;isolation:isolate"></polygon><polygon points="223.41 340.42 211.32 340.42 199.83 317.16 211.92 317.16 223.41 340.42" style="fill:#fff;opacity:0.4;isolation:isolate"></polygon></g><g id="freepik--Cone--inject-1"><polygon points="288.3 417.21 247.48 417.21 252.98 390.52 257.11 370.52 263.18 341.06 272.6 341.06 278.67 370.52 282.8 390.52 288.3 417.21" style="fill:#263238"></polygon><path d="M250.26,403.76l-9.12,9.61a2.27,2.27,0,0,0,1.65,3.84H293a2.27,2.27,0,0,0,1.65-3.84l-9.12-9.61Z" style="fill:#263238"></path><path d="M250.26,403.76l-9.12,9.61a2.27,2.27,0,0,0,1.65,3.84H293a2.27,2.27,0,0,0,1.65-3.84l-9.12-9.61Z" style="opacity:0.2;isolation:isolate"></path><polygon points="282.8 390.52 252.98 390.52 257.11 370.52 278.67 370.52 282.8 390.52" style="fill:#fff;opacity:0.4;isolation:isolate"></polygon></g><g id="freepik--Helmet--inject-1"><circle cx="192.81" cy="188.12" r="105.44" style="fill:#263238"></circle><path d="M192.92,298.85a111.63,111.63,0,0,1-22.59-2.28,1,1,0,0,1-.77-1.18,1,1,0,0,1,1.18-.78,109.3,109.3,0,0,0,22.07,2.24l2.52,0a1,1,0,0,1,0,2Zm7.42-.25a1,1,0,0,1-1-.93,1,1,0,0,1,.93-1.07,107.39,107.39,0,0,0,46.92-14.31,1,1,0,1,1,1,1.73,109.41,109.41,0,0,1-47.79,14.58Zm-39.48-4.47a.92.92,0,0,1-.29,0c-3.2-1-6.4-2.11-9.5-3.38a1,1,0,0,1,.75-1.85c3.05,1.24,6.19,2.36,9.33,3.31a1,1,0,0,1-.29,2ZM138,284.2a1,1,0,0,1-.5-.13A111.7,111.7,0,0,1,101,250a1,1,0,1,1,1.65-1.12,109.67,109.67,0,0,0,35.89,33.48,1,1,0,0,1-.5,1.87Zm122.13-8.41a1,1,0,0,1-.79-.38,1,1,0,0,1,.17-1.41c2.6-2,5.13-4.18,7.53-6.42A1,1,0,0,1,268.4,269c-2.45,2.28-5,4.48-7.67,6.54A1,1,0,0,1,260.12,275.79Zm14.57-13.62a1,1,0,0,1-.74-1.67,109.15,109.15,0,0,0,14.26-20.17,1,1,0,0,1,1.75,1,110.71,110.71,0,0,1-14.52,20.54A1,1,0,0,1,274.69,262.17Zm-175.61-16a1,1,0,0,1-.85-.48,110.44,110.44,0,0,1-10.58-22.82,1,1,0,1,1,1.9-.63,108.45,108.45,0,0,0,10.38,22.4,1,1,0,0,1-.33,1.38A1,1,0,0,1,99.08,246.22Zm192.31-8.85a1,1,0,0,1-.44-.1,1,1,0,0,1-.46-1.34,107.67,107.67,0,0,0,11.05-47.81v-.22a1,1,0,0,1,2,0v.22a109.73,109.73,0,0,1-11.25,48.69A1,1,0,0,1,291.39,237.37ZM85.9,214a1,1,0,0,1-1-.77c-.75-3.26-1.37-6.6-1.82-9.92a1,1,0,0,1,.85-1.12,1,1,0,0,1,1.13.85c.45,3.26,1,6.54,1.79,9.73a1,1,0,0,1-.75,1.2A.85.85,0,0,1,85.9,214Zm-2.82-24.76a1,1,0,0,1-1-1v-.11a109.59,109.59,0,0,1,11.2-48.59,1,1,0,0,1,1.34-.46,1,1,0,0,1,.45,1.34,107.77,107.77,0,0,0-11,47.71v.11A1,1,0,0,1,83.08,189.23ZM301.5,174a1,1,0,0,1-1-.86c-.45-3.26-1.06-6.53-1.8-9.73a1,1,0,0,1,2-.45c.75,3.25,1.37,6.59,1.83,9.91a1,1,0,0,1-.85,1.12ZM297,154.53a1,1,0,0,1-1-.68,108.81,108.81,0,0,0-10.41-22.4,1,1,0,0,1,1.71-1,110.72,110.72,0,0,1,10.6,22.81,1,1,0,0,1-.64,1.26A.84.84,0,0,1,297,154.53Zm-200.5-18a.91.91,0,0,1-.48-.13,1,1,0,0,1-.4-1.35,111.08,111.08,0,0,1,14.5-20.56,1,1,0,1,1,1.49,1.33A109.67,109.67,0,0,0,97.35,136,1,1,0,0,1,96.48,136.53Zm187.3-8.79a1,1,0,0,1-.83-.44A110,110,0,0,0,247,93.85a1,1,0,1,1,1-1.73,111.77,111.77,0,0,1,36.57,34.06,1,1,0,0,1-.82,1.56ZM117.82,109a1,1,0,0,1-.73-.32,1,1,0,0,1,0-1.41c2.45-2.29,5-4.49,7.66-6.55a1,1,0,0,1,1.41.18,1,1,0,0,1-.18,1.4c-2.59,2-5.12,4.18-7.52,6.43A1,1,0,0,1,117.82,109Zm20-14.87a1,1,0,0,1-.86-.49,1,1,0,0,1,.36-1.37,109.56,109.56,0,0,1,47.78-14.63,1,1,0,1,1,.14,2A107.37,107.37,0,0,0,138.32,94,1,1,0,0,1,137.81,94.14Zm96.26-6.73a1,1,0,0,1-.38-.07c-3-1.24-6.18-2.35-9.33-3.3a1,1,0,0,1,.58-1.92c3.21,1,6.41,2.11,9.5,3.37a1,1,0,0,1-.37,1.92ZM215,81.63l-.2,0a110.22,110.22,0,0,0-24.6-2.19,1,1,0,0,1-1-1,1,1,0,0,1,1-1,111.88,111.88,0,0,1,25,2.23,1,1,0,0,1-.2,2Z" style="fill:#263238"></path><circle cx="192.81" cy="188.12" r="105.44" style="fill:#fff;opacity:0.7000000000000001;isolation:isolate"></circle><path d="M119.89,203.57l-.09,10.24a.66.66,0,0,0,.72.68c38.83-3,60-22.68,60-22.68l-6.57-10.2c-18.3,17.1-48.63,20.77-53.38,21.25A.73.73,0,0,0,119.89,203.57Zm23.73,1.12a.9.9,0,0,1,.82-.88.77.77,0,0,1,.82.78.88.88,0,0,1-.82.88A.77.77,0,0,1,143.62,204.69Zm-4.74,1.13a.88.88,0,0,1,.82-.88.77.77,0,0,1,.82.78.9.9,0,0,1-.82.88A.77.77,0,0,1,138.88,205.82ZM133.94,207a.89.89,0,0,1,.83-.88.77.77,0,0,1,.82.78.89.89,0,0,1-.82.88A.77.77,0,0,1,133.94,207Zm-5.24,1.15a.89.89,0,0,1,.82-.88.77.77,0,0,1,.82.78.88.88,0,0,1-.82.88A.76.76,0,0,1,128.7,208.1Zm-4.95.31a.89.89,0,0,1,.82-.88.77.77,0,0,1,.83.78.89.89,0,0,1-.83.88A.77.77,0,0,1,123.75,208.41Z" style="fill:#263238"></path><path d="M119.9,203.17l-.1,10.29a.66.66,0,0,0,1,.6c14.16-7.25,17-25,17-25l-8.71-6.47a46.45,46.45,0,0,1-9,20.14A.66.66,0,0,0,119.9,203.17Zm4.17.78c0-.45.22-.84.5-.86s.51.34.51.8-.23.84-.51.86S124.07,204.41,124.07,204Zm-3,3c0-.46.22-.84.5-.86s.51.34.51.8-.23.84-.51.86S121.11,207.37,121.11,206.91Z" style="fill:#263238"></path><path d="M119.9,203.17l-.1,10.29a.66.66,0,0,0,1,.6c14.16-7.25,17-25,17-25l-8.71-6.47a46.45,46.45,0,0,1-9,20.14A.66.66,0,0,0,119.9,203.17Zm4.17.78c0-.45.22-.84.5-.86s.51.34.51.8-.23.84-.51.86S124.07,204.41,124.07,204Zm-3,3c0-.46.22-.84.5-.86s.51.34.51.8-.23.84-.51.86S121.11,207.37,121.11,206.91Z" style="fill:#fff;opacity:0.2"></path><path d="M151.72,188.23s11.18,83.89,66.78,80.31c0,0-5.62,2.43-14.39,1A55.29,55.29,0,0,1,187.59,264c-17.66-9.35-39.65-46.29-44.9-75Z" style="fill:#263238"></path><path d="M251.45,179.38s11.81,81.26-33.95,89.55c0,0-6.21.61-10.12.56,0,0,11.5,1.57,24.91-11.78s15.57-45.42,10.11-77.82Z" style="fill:#263238"></path><path d="M151.72,188.23s11.18,83.89,66.78,80.31c0,0-5.62,2.43-14.39,1A55.29,55.29,0,0,1,187.59,264c-17.66-9.35-39.65-46.29-44.9-75Z" style="fill:#fff;opacity:0.2"></path><path d="M227.37,265.64a7.42,7.42,0,0,1-4.11,4c-3.21,1.35-12.71,3.28-19.15-.06l2.62-1.68a70.33,70.33,0,0,1,13.54-3C225.24,264.35,227.37,265.64,227.37,265.64Z" style="fill:#263238"></path><path d="M227.37,265.64a7.42,7.42,0,0,1-4.11,4c-3.21,1.35-12.71,3.28-19.15-.06l2.62-1.68a70.33,70.33,0,0,1,13.54-3C225.24,264.35,227.37,265.64,227.37,265.64Z" style="fill:#fff;opacity:0.4"></path><path d="M117.33,193.39c41.79,9.21,57.5,32.49,97,40.74,32.8,6.86,59.66-6,60.37-25.46a18.31,18.31,0,0,0,0-2.09h0c-1.32-18.9-29.21-39.42-45.48-41.65-74.12-10.21-114.76,9.79-118,21.46C110.24,189.66,112.27,192.27,117.33,193.39Z" style="fill:#263238"></path><path d="M117.33,193.39c41.79,9.21,57.5,32.49,97,40.74,32.8,6.86,59.66-6,60.37-25.46a18.31,18.31,0,0,0,0-2.09c-1.33,19.06-27.93,31.54-60.33,24.76-39.46-8.25-55.17-31.53-97-40.74-3.51-.77-5.57-2.28-6.18-4.22C110.24,189.66,112.27,192.27,117.33,193.39Z" style="opacity:0.2"></path><path d="M256.36,179.74s11.18,7,14.65,17.57,3.57,17.31-8.49,26.31S218,233.69,194.9,224s-1.26-2.56.93-3.55-8.26-2-19.39-7-23.1-12.45-21.67-13.22,12.9,6.62,21.08,8.75S159.91,200.6,158.31,195,256.36,179.74,256.36,179.74Z" style="fill:#fff;opacity:0.2"></path><path d="M256.36,177.43s5.19,6.53,5.19,10.14-.88,7.51-1.9,8.33a6.46,6.46,0,0,1-2.78,1.18c-1.1.32-3.92,10.58-17.2,14.33s-29.34,3.17-40,.42a155,155,0,0,0-15.27-3.39s-19.43-6.27-29.9-14.28S256.36,177.43,256.36,177.43Z" style="fill:#263238"></path><path d="M116.62,182.23s17.07.32,47.59,16.87c27.27,14.78,87.07,25.76,94-8.85a146.09,146.09,0,0,0-7.62-36.67c-.51-1.43-1-2.85-1.65-4.28-1-.21-2.51-1.67-3.78-8.12a5.86,5.86,0,0,0-.3-.55c-.5-.93-1-1.85-1.55-2.75h0a52.13,52.13,0,0,0-14.48-16.18c-.52-.36-1.07-.73-1.61-1.08-27.54-17.92-76.86-18.52-100.09,27.49a6,6,0,0,1-.31,4.14,13,13,0,0,1-3.1,3.43h0A124.26,124.26,0,0,0,116.62,182.23Z" style="fill:#263238"></path><path d="M123.75,155.68c22.94,2.11,58.76,28.36,52.69,13.68s-38.19-27.27-49.27-21.26a6,6,0,0,1-.31,4.14,13,13,0,0,1-3.1,3.43Z" style="opacity:0.2"></path><path d="M249.54,158.11c1.58,1.71.05-7.38-.55-8.81-1-.21-2.51-1.67-3.78-8.12C245.12,141,246.91,155.28,249.54,158.11Z" style="opacity:0.2"></path><path d="M127.75,147a28.82,28.82,0,0,1,5.92-1.09,38.77,38.77,0,0,1-1.68-6.15C130.51,142,129.08,144.43,127.75,147Z" style="opacity:0.1"></path><path d="M116.62,182.23s17.07.32,47.59,16.87c27.27,14.78,87.07,25.76,94-8.85a142.8,142.8,0,0,0-3.2-21.25c1.42,15.72-2.72,29.24-14.29,35.11-30.81,15.63-78-13.29-98.82-42.79a64.66,64.66,0,0,0-18.47-4.95A124.84,124.84,0,0,0,116.62,182.23Z" style="opacity:0.1"></path><path d="M148.87,137.1c4.17,8.16,0,10,0,10s11.38,3.49,19.85,10.67,11.38,12.41,9.49,15.83-10.24,0-10.24,0,3.51,13.37,19.47,22.8c0,0,12,1.76,12.33,2.66s.95,4.43.95,4.43a55.77,55.77,0,0,0,31,1.16c16.56-4.34,20.74-25.1,20.86-32.8s-.21-10.25-1.52-14.73c0,0-.17,3.1-1.6,2-1.24-1-4.34-6.21-5.35-17.82a14.45,14.45,0,0,0-.74-3.37h0a52.13,52.13,0,0,0-14.48-16.18c-.52-.36-1.07-.73-1.61-1.08,5.23,7,17.51,25.94,20.45,51.52,3.43,29.74-20.23,27.41-26.17,19.38s-18.79-39-34.1-54.29c-11.27-11.26-23.08-16-33.59-13.45C148.84,125,144.69,128.92,148.87,137.1Z" style="fill:#fff;opacity:0.1"></path><path d="M146.27,123.8c44.39-13.9,65.61,54.09,76.13,66.18s23.38,3.46,24.53-4.87a35.42,35.42,0,0,0,.29-4.62c0-.79,0-1.64,0-2.53-.38-10.5-3.52-28-14-46.57-13.48-23.94-37.74-29.09-58.24-25.52a47.17,47.17,0,0,0-9.65,2.73,43,43,0,0,0-13.1,8.22A32.44,32.44,0,0,0,146.27,123.8Z" style="fill:#263238"></path><path d="M146.27,123.8c44.39-13.9,65.61,54.09,76.13,66.18s23.38,3.46,24.53-4.87a35.42,35.42,0,0,0,.29-4.62c-2,8-14.25,15.44-24.33,3.84s-30-74.51-70.7-67.51A32.44,32.44,0,0,0,146.27,123.8Z" style="opacity:0.2"></path><path d="M165.29,108.6c6.34-1.6,11.07-1.13,10.64.53-.75,3,6.71,0,8.51,3.17s-6.85,5.74,4.78,15C202.11,137.64,215,161.1,220,173.18s10.43,16.47,18.71,14.29c4.53-1.19,7.11-5.68,8.53-9.51-.38-10.5-3.52-28-14-46.57-13.48-23.94-37.74-29.09-58.24-25.52A47.17,47.17,0,0,0,165.29,108.6Z" style="fill:#fff;opacity:0.2"></path><path d="M199.76,211.18,198.69,200a1.08,1.08,0,0,0-.91-1l-9.3-1.46a1.25,1.25,0,0,0-1.36.89l-2.68,9a6.64,6.64,0,0,0,1.69,3.84c1.52,1.44,7.59,2.26,9.28,2.33S199.76,211.18,199.76,211.18Z" style="fill:#263238"></path><path d="M184.44,207.38a6.64,6.64,0,0,0,1.69,3.84c1.52,1.44,7.59,2.26,9.28,2.33s4.36-2.37,4.36-2.37L198.7,200l.59,10.71s-2.28,1.93-3.55,2-8.93-1.58-9.36-2.41.7-11.44,1.49-12.68a1.24,1.24,0,0,0-.74.82Z" style="opacity:0.1"></path><path d="M197.94,199.7s-1.1,11.37-1.69,11.75-7.42-.31-7.25-3,1.18-9.43-.67-10.34C188.33,198.15,197.15,199,197.94,199.7Z" style="fill:#fff;opacity:0.2"></path><path d="M257,178.94l-1.71,3.87a3.16,3.16,0,0,0-.25,1.81l1.65,10.91s2-.26,2.68-1.11,1.68-5.79,1.35-7.42S259.47,179.13,257,178.94Z" style="fill:#263238"></path><path d="M255,184.62l1.65,10.91s2-.26,2.67-1.11,1.46-4.7,1.41-6.73c-.28,3.66-1.57,6.44-1.78,6.45s-.34-2.15-1.44-4.34-2.55-5.63-2-6.51a24.66,24.66,0,0,0,1.43-4.35l-1.72,3.88A3.38,3.38,0,0,0,255,184.62Z" style="opacity:0.1"></path><path d="M256.36,184.53c0,.78.47,1.19,1.23,2.66a23.49,23.49,0,0,1,1.85,4.75,18.22,18.22,0,0,0,1.2-5.07c-.32-1.63-1.07-6.63-3-7.72A19.15,19.15,0,0,1,256.36,184.53Z" style="fill:#fff;opacity:0.2"></path><path d="M119.71,182.54l.19-8a.69.69,0,0,0-.57-.71l-1-.18s-1.28.78-3.47,9.24C114.81,182.84,116.19,184.18,119.71,182.54Z" style="fill:#263238"></path><path d="M114.81,182.84s1.33,1.29,4.73-.23c-.57.17-1.65.44-1.57,0,.11-.59,1.1-7.9,1-8.15a2.47,2.47,0,0,0-1.09-.34C117.3,175,116.25,177.24,114.81,182.84Z" style="opacity:0.1"></path><path d="M119.18,174.46c0,.28-.79,7.74-.73,8s1.26-.08,1.26-.08l.19-7.91a.68.68,0,0,0-.57-.7l-1.06-.2h0c0,.07-.09.37.19.39S119.21,174.17,119.18,174.46Z" style="fill:#fff;opacity:0.1"></path></g><g id="freepik--speech-bubble--inject-1"><circle cx="375.21" cy="106.26" r="24.6" style="fill:#263238"></circle><circle cx="375.21" cy="106.26" r="24.6" style="fill:#fff;opacity:0.7000000000000001"></circle><path d="M390.12,97.57l-14.85-4.81-.06,0,0,0-14.85,4.81s0,16,14.85,24.18l0,0,.06,0C390.1,113.55,390.12,97.57,390.12,97.57Z" style="fill:#263238"></path><path d="M375.22,119.48A27.09,27.09,0,0,1,362.4,99l12.81-4.16L388,99A27.05,27.05,0,0,1,375.22,119.48Z" style="opacity:0.2;isolation:isolate"></path><polygon points="372.82 129.21 375.21 136.49 377.61 129.21 372.82 129.21" style="fill:#263238"></polygon><polygon points="372.82 129.21 375.21 136.49 377.61 129.21 372.82 129.21" style="fill:#fff;opacity:0.7000000000000001"></polygon><polygon points="374.59 111.86 368.26 105.81 370.33 103.64 374.47 107.59 381.55 100 383.75 102.04 374.59 111.86" style="fill:#fff"></polygon></g><g id="freepik--Character--inject-1"><path d="M294.15,200.76l-8.36-1.44,4.46-9.14s7.42,2.22,6.87,6.35Z" style="fill:#ebb376"></path><path d="M280.65,192.16l2.1-2.94a3,3,0,0,1,3.7-.92l3.8,1.88-4.46,9.14-4.41-3A2.94,2.94,0,0,1,280.65,192.16Z" style="fill:#ebb376"></path><path d="M353.69,200.86a16.92,16.92,0,0,0-2.51,1.14c-1,.53-2,1.16-3.1,1.83-2.15,1.35-4.4,2.83-6.71,4.34s-4.73,3.06-7.35,4.52a39.88,39.88,0,0,1-9.2,3.91,17.63,17.63,0,0,1-3.24.51l-1,0-.86,0a15,15,0,0,1-1.61-.17,25.85,25.85,0,0,1-5.22-1.43,56.6,56.6,0,0,1-8.26-4c-2.55-1.45-4.91-3.07-7.24-4.71-1.15-.84-2.28-1.69-3.39-2.57l-1.66-1.34-.83-.68c-.29-.21-.55-.44-.27-1.5a11.19,11.19,0,0,1,3.89-5.93l1.2-.94c.82-.65,1.12-.49,1.37-.3l.84.49,1.71,1c1.14.64,2.28,1.29,3.43,1.9,2.26,1.29,4.58,2.44,6.83,3.56a43.7,43.7,0,0,0,6.61,2.66,12.21,12.21,0,0,0,2.69.54,2.06,2.06,0,0,0,.42,0h.16l.05,0a6.49,6.49,0,0,0,.77-.21,27.86,27.86,0,0,0,5.58-2.9c2.05-1.33,4.17-2.81,6.34-4.37s4.38-3.2,6.8-4.82c1.21-.81,2.47-1.63,3.86-2.43a31.17,31.17,0,0,1,4.86-2.34l0,0a7.58,7.58,0,0,1,5.29,14.2Z" style="fill:#263238"></path><path d="M353.69,200.86a16.92,16.92,0,0,0-2.51,1.14c-1,.53-2,1.16-3.1,1.83-2.15,1.35-4.4,2.83-6.71,4.34s-4.73,3.06-7.35,4.52a39.88,39.88,0,0,1-9.2,3.91,17.63,17.63,0,0,1-3.24.51l-1,0-.86,0a15,15,0,0,1-1.61-.17,25.85,25.85,0,0,1-5.22-1.43,56.6,56.6,0,0,1-8.26-4c-2.55-1.45-4.91-3.07-7.24-4.71-1.15-.84-2.28-1.69-3.39-2.57l-1.66-1.34-.83-.68c-.29-.21-.55-.44-.27-1.5a11.19,11.19,0,0,1,3.89-5.93l1.2-.94c.82-.65,1.12-.49,1.37-.3l.84.49,1.71,1c1.14.64,2.28,1.29,3.43,1.9,2.26,1.29,4.58,2.44,6.83,3.56a43.7,43.7,0,0,0,6.61,2.66,12.21,12.21,0,0,0,2.69.54,2.06,2.06,0,0,0,.42,0h.16l.05,0a6.49,6.49,0,0,0,.77-.21,27.86,27.86,0,0,0,5.58-2.9c2.05-1.33,4.17-2.81,6.34-4.37s4.38-3.2,6.8-4.82c1.21-.81,2.47-1.63,3.86-2.43a31.17,31.17,0,0,1,4.86-2.34l0,0a7.58,7.58,0,0,1,5.29,14.2Z" style="fill:#fff;opacity:0.6000000000000001"></path><path d="M344.46,206.16l-3.09,2c-2.32,1.51-4.72,3.06-7.35,4.52l-.29.16c-.23-8.07,9.69-13.57,9.69-13.57A15.9,15.9,0,0,1,344.46,206.16Z" style="opacity:0.1"></path><path d="M384.81,188.81a142.69,142.69,0,0,0-29.23-4,16.39,16.39,0,0,0-16.64,14.34c-1.89,15,1.41,20.28.94,43.58-2.42,2.42-1.39,6.48.29,7.11,14.11,5.34,36.29,4,43.67,3.23,3.25-.34,2-4.78,2-4.78,1-7.76-.61-7.34,1-16.88,2.52-9.31,2.43-16.56,5.91-28.9A11.1,11.1,0,0,0,384.81,188.81Z" style="fill:#263238"></path><path d="M392.76,202.55c-.3,1.08-.58,2.12-.83,3.12-1,4-1.67,7.5-2.21,10.74a143.63,143.63,0,0,1-2.87,15c-1.65,9.54,0,9.12-1,16.88,0,0,1.28,4.44-2,4.78-7.39.77-29.57,2.11-43.68-3.23-1.68-.63-2.7-4.69-.29-7.11.47-23.3-2.83-28.61-.94-43.58a16.39,16.39,0,0,1,16.64-14.34,142.69,142.69,0,0,1,29.23,4A11.1,11.1,0,0,1,392.76,202.55Z" style="fill:#fff;opacity:0.6000000000000001;isolation:isolate"></path><path d="M391.93,205.67c-1,4-1.67,7.5-2.21,10.74-4.46-3-4.23-14-4.23-14A17.06,17.06,0,0,1,391.93,205.67Z" style="opacity:0.1"></path><path d="M343,387.67c-.55,5-1,19.5-2.13,23,2,3.84,4.89,4.68,6.73,2.44S353,391.45,353,391.45Z" style="fill:#ebb376"></path><path d="M338.68,329c1.68,25,2,66.87,2,66.87l11.86.52a311.57,311.57,0,0,0,6.9-52.74q.12-3.8.11-7.59a388.74,388.74,0,0,1,9.64-44c2.94-10.74,5.53-19.28,6.93-27.45l-35-11.37C339.14,259.39,335.77,285.71,338.68,329Z" style="fill:#263238"></path><path d="M351.38,409.54c-2.25.17-9.62.18-11.07-.71s-.6-15-.6-15,12.66-.12,13.62,1S351.38,409.54,351.38,409.54Z" style="fill:#263238"></path><path d="M327.26,415s12.13-3.57,13-8.35a.82.82,0,0,1,1-.69l8.81,1.47a1.15,1.15,0,0,1,.89.78l2.69,8.57-2.49.08-.92-1.23-1.05,1.29c-13.52.43-19.37.47-22.07-.29C326.7,415.43,327.26,415,327.26,415Z" style="fill:#263238"></path><path d="M359.41,343.67q.12-3.8.11-7.59a388.74,388.74,0,0,1,9.64-44c-3.77-10.74-8.57-18.8-13.75-19.74C355.41,272.36,346.21,319,359.41,343.67Z" style="opacity:0.4"></path><path d="M340,257.37a40.23,40.23,0,0,1,.64-8.29c.06-.86,40.44.58,43.78,1,4.18.48-.86,19.36-4.65,25.62C350.4,275.34,340.48,262.48,340,257.37Z" style="fill:#263238"></path><path d="M341.56,250c4.62-.37,34.62.09,42.63,1.26a.57.57,0,0,1,.47.42,7,7,0,0,1,.09,2.61.56.56,0,0,1-.6.49c-2.84-.16-17.63-.94-42.76-1.16a.57.57,0,0,1-.58-.6c0-.79.15-1.9.23-2.52A.57.57,0,0,1,341.56,250Z" style="fill:#fff"></path><path d="M367.35,249.53c.3.64,0,5.5,0,5.5l2.16-.08s.65-4.07.34-5.23A11.76,11.76,0,0,0,367.35,249.53Z" style="fill:#263238"></path><path d="M349.45,249.41a17.57,17.57,0,0,0-.3,5l-1.91,0s-.32-4,.06-5A4.23,4.23,0,0,1,349.45,249.41Z" style="fill:#263238"></path><path d="M385.93,335.51c-1.51-36.45-.08-59.3-.57-76.42L351.51,258c-.7,6.38,1.19,32.85,12.6,74.73,6.57,24.13,15.14,65.17,15.14,65.17L391,396S391.91,364.41,385.93,335.51Z" style="fill:#263238"></path><path d="M391,408c-2.17.61-8.43-.35-10-.94s-3.09-12-3.09-12,12.39-2.61,13.54-1.74S391,408,391,408Z" style="fill:#263238"></path><path d="M367.29,415s12.13-3.57,13-8.35a.82.82,0,0,1,1-.69l8.81,1.47a1.17,1.17,0,0,1,.9.78l2.69,8.57-2.5.08-.92-1.23-1,1.29c-13.52.43-19.37.47-22.07-.29C366.72,415.43,367.29,415,367.29,415Z" style="fill:#263238"></path><path d="M376.88,170.06A39.54,39.54,0,0,0,378,187.18a1.07,1.07,0,0,1-.41,1.15A20.93,20.93,0,0,1,363,191.56c-6.19-.72-5.58-2.6-3.84-4.59a2.57,2.57,0,0,1,.91-.65c4.55-2,5.13-5.29,4.22-7.47Z" style="fill:#ebb376"></path><path d="M376.87,170.06l-12.55,8.79a4.82,4.82,0,0,1-.31,4.32,9.49,9.49,0,0,0,6.76-1.48c3.21-2.09,4.57-4.87,5.82-8.88C376.65,171.94,376.75,171,376.87,170.06Z" style="opacity:0.2"></path><path d="M386.8,167.28c-2.83.23-18.56-4.21-21.72-7.79s13.38-6.76,18.36-3.57S389.91,167,386.8,167.28Z" style="fill:#263238"></path><path d="M386.8,167.28c-2.83.23-18.56-4.21-21.72-7.79s13.38-6.76,18.36-3.57S389.91,167,386.8,167.28Z" style="opacity:0.4;isolation:isolate"></path><path d="M361.34,154c-2.1,2.18,0,5.28-.27,7.54s-.83,5.17,2.28,2.25S364.6,151,361.34,154Z" style="fill:#263238"></path><path d="M380.91,165.21c-1.47,7.47-.56,8.82-4.89,12.15-6.51,5-16,4.89-16.37-2.93-.31-7,.64-19.59,8.43-21.54A10.51,10.51,0,0,1,380.91,165.21Z" style="fill:#ebb376"></path><path d="M379.46,170.21c-3.54,1.83-4.33-3-4.07-3.39,1.14-1.55,1.17-2.94.15-6.12s5.42-6.35,9.85-4.71c4.08,1.5-.34,4.47,0,7.21C386.05,168.09,382.31,168.73,379.46,170.21Z" style="fill:#263238"></path><path d="M383.68,170.7a6.92,6.92,0,0,1-4,3.22c-2.13.61-3-1.51-2.22-3.71.7-2,2.64-4.69,4.69-4.32S384.8,168.74,383.68,170.7Z" style="fill:#ebb376"></path><path d="M371.68,164.76c-.11.64-.41.66-.83.58s-.79-.22-.68-.86.54-1.09,1-1S371.79,164.12,371.68,164.76Z" style="fill:#263238"></path><path d="M363.76,164.21c-.11.64-.42.65-.83.58s-.8-.22-.69-.86.54-1.1,1-1S363.87,163.57,363.76,164.21Z" style="fill:#263238"></path><path d="M365,164.08a17.64,17.64,0,0,1-2.83,3.95,2.87,2.87,0,0,0,2.32.73Z" style="fill:#d58745"></path><path d="M373.26,162a.43.43,0,0,0,.18-.06.38.38,0,0,0,.1-.53,3.83,3.83,0,0,0-3.05-1.73.38.38,0,0,0,0,.76h0a3.05,3.05,0,0,1,2.4,1.4A.4.4,0,0,0,373.26,162Z" style="fill:#263238"></path><path d="M361.05,160.81a.35.35,0,0,0,.35-.07,3,3,0,0,1,2.66-.67.39.39,0,0,0,.48-.25.39.39,0,0,0-.26-.48,3.76,3.76,0,0,0-3.37.81.39.39,0,0,0-.05.54A.39.39,0,0,0,361.05,160.81Z" style="fill:#263238"></path><path d="M365.11,172.83a9.85,9.85,0,0,1-1.38-.1.37.37,0,0,1-.32-.42.39.39,0,0,1,.42-.32c4.28.55,5.64-1.73,5.7-1.83a.37.37,0,1,1,.65.37C370.13,170.63,368.84,172.83,365.11,172.83Z" style="fill:#263238"></path><path d="M381.55,158.44s-4.91,20.59-15.23,22.72l-2-.61s5.49.09,9.32-6.05,6.44-16.38,6.44-16.38Z"></path><path d="M367.34,180.88a5.71,5.71,0,0,0-3-1.71,4.58,4.58,0,0,0-2.57,0,4,4,0,0,0,2.52,1.92A3.19,3.19,0,0,0,367.34,180.88Z" style="fill:#263238"></path><path d="M356.73,154.44c5.7,6.46,20.32,2.08,25.57,5.78s4.51,7,4.5,7.06c3.65,1.1,1.57-4.42,1.57-4.42,3.62-10.7-3.58-17-14.51-18.41-10.23-1.29-12.85,8.14-12.85,8.14Z" style="fill:#263238"></path><path d="M361,152.59c2.37,3.79,16.71,3.08,22.1,4.85s5.26,5.42,5.26,5.42c3.62-10.7-3.58-17-14.51-18.41C363.63,143.16,361,152.59,361,152.59Z" style="opacity:0.2;isolation:isolate"></path><path d="M381.45,147.08c-4.37-1.53-9.15,1.77-11,4.19s-5.81,1.44-5.95-1.3a4.16,4.16,0,0,1,.41-1.83,7.54,7.54,0,0,1,6.94-4.09c5.12-.05,13.9.86,15.67,7.37C387.53,151.42,385.94,148.65,381.45,147.08Z" style="fill:#263238"></path><path d="M388.14,229.53c-.77,2.55-1.42,4.59-1.29,5.77,0,.07,0,.14,0,.23.07.74.21,2.22.36,4s.36,4.22.55,6.38c.33,4,.63,7.57.63,7.57L358,251.84l-1.29-6-2.37,6H337.55l1.57-9,.26-1.46-.28-4.65-.25-4-.37-6.1-.13-2.13c-.6-19.56,8.77-38.81,8.77-38.81,5.52-2.25,11.67-.77,11.67-.77-5.79,7.55,0,18.95,0,18.95a60.35,60.35,0,0,1,21.95-16.23c7.48-.12,10.29,3.17,10.29,3.17-10.31,18.89-.92,30.48-.92,30.48A54.1,54.1,0,0,1,388.14,229.53Z" style="fill:#263238"></path><path d="M386.85,235.3c0,.07,0,.14,0,.23-5.12-1.34-19.37-2.27-19.37-2.27l.6-6a126.19,126.19,0,0,1,20,2.32C387.37,232.08,386.72,234.12,386.85,235.3Z" style="fill:#fff;opacity:0.6000000000000001;isolation:isolate"></path><path d="M387.79,246c-4.71-1.41-19.78-2.4-19.78-2.4l-.5-6.11a140.26,140.26,0,0,1,19.73,2.13C387.41,241.49,387.6,243.79,387.79,246Z" style="fill:#fff;opacity:0.6000000000000001;isolation:isolate"></path><path d="M348.57,232.36s-4.72.11-9.72.42l-.37-6.1a92.66,92.66,0,0,1,10-.32Z" style="fill:#fff;opacity:0.6000000000000001;isolation:isolate"></path><path d="M348.22,236.51l-1,6s-3.75.09-8.1.32l.26-1.46-.28-4.65C342.14,236.53,345.35,236.42,348.22,236.51Z" style="fill:#fff;opacity:0.6000000000000001;isolation:isolate"></path><g style="opacity:0.2"><path d="M358.79,203.92c-.24,1.74-.5,3.48-.7,5.23s-.43,3.48-.52,5.22c-.22,3.52-.58,7-.81,10.51s-.48,7-.59,10.5q-.09,2.63,0,5.25a31.68,31.68,0,0,0,.56,5.22,36.63,36.63,0,0,1-1.33-10.48c-.07-3.53.11-7.05.36-10.56s.65-7,1-10.5A74.14,74.14,0,0,1,358.79,203.92Z"></path></g><path d="M389.58,246.58l-8.38,1.28,4.28,9.23s7.46-2.08,7-6.22Z" style="fill:#ebb376"></path><path d="M375.92,254.92l2.05,3a2.93,2.93,0,0,0,3.67,1l3.84-1.8-4.28-9.23-4.47,2.94A2.94,2.94,0,0,0,375.92,254.92Z" style="fill:#ebb376"></path><path d="M392.12,193.85c2.05,2.07,3.86,4,5.72,6.1s3.61,4.2,5.35,6.41a80.48,80.48,0,0,1,5,7c.8,1.26,1.57,2.59,2.3,4a26,26,0,0,1,2,5c.13.55.26,1.06.35,1.65l.12.94.05.46,0,.54a13.63,13.63,0,0,1-.44,3.69,21.23,21.23,0,0,1-2.16,5.25,45.49,45.49,0,0,1-5.44,7.45,72.79,72.79,0,0,1-6,6c-1,.93-2.1,1.83-3.18,2.71l-1.64,1.29-.83.64c-.27.24-.55.44-1.51-.07a10.93,10.93,0,0,1-4.74-4.85l-.82-1.65c-.47-.94-.24-1.18,0-1.38l.64-.69,1.27-1.4c.85-.94,1.69-1.88,2.5-2.84,1.66-1.86,3.2-3.82,4.65-5.72a34.21,34.21,0,0,0,3.53-5.61,8.07,8.07,0,0,0,.71-2.12c0-.22,0-.33,0-.24s-.05,0,0,0a2.39,2.39,0,0,1-.1-.29,13.58,13.58,0,0,0-1.12-2.26c-.52-.88-1.12-1.8-1.8-2.74-1.36-1.87-2.88-3.78-4.5-5.65s-3.34-3.72-5.07-5.55-3.57-3.68-5.3-5.33l-.05-.05a7.57,7.57,0,0,1,10.43-11Z" style="fill:#263238"></path><path d="M392.12,193.85c2.05,2.07,3.86,4,5.72,6.1s3.61,4.2,5.35,6.41a80.48,80.48,0,0,1,5,7c.8,1.26,1.57,2.59,2.3,4a26,26,0,0,1,2,5c.13.55.26,1.06.35,1.65l.12.94.05.46,0,.54a13.63,13.63,0,0,1-.44,3.69,21.23,21.23,0,0,1-2.16,5.25,45.49,45.49,0,0,1-5.44,7.45,72.79,72.79,0,0,1-6,6c-1,.93-2.1,1.83-3.18,2.71l-1.64,1.29-.83.64c-.27.24-.55.44-1.51-.07a10.93,10.93,0,0,1-4.74-4.85l-.82-1.65c-.47-.94-.24-1.18,0-1.38l.64-.69,1.27-1.4c.85-.94,1.69-1.88,2.5-2.84,1.66-1.86,3.2-3.82,4.65-5.72a34.21,34.21,0,0,0,3.53-5.61,8.07,8.07,0,0,0,.71-2.12c0-.22,0-.33,0-.24s-.05,0,0,0a2.39,2.39,0,0,1-.1-.29,13.58,13.58,0,0,0-1.12-2.26c-.52-.88-1.12-1.8-1.8-2.74-1.36-1.87-2.88-3.78-4.5-5.65s-3.34-3.72-5.07-5.55-3.57-3.68-5.3-5.33l-.05-.05a7.57,7.57,0,0,1,10.43-11Z" style="fill:#fff;opacity:0.6000000000000001"></path><path d="M388.75,219.13c-2.16-4.21-5.39-14.22,2.28-28.27,0,0-2.81-3.29-10.3-3.17l-.13.05c-11.68,4.7-12.32,21-1.1,26.7Z" style="fill:#263238"></path></g></svg>
